<svg width="20" height="21" viewBox="0 0 20 21" fill="none" xmlns="http://www.w3.org/2000/svg">
<path d="M19.5931 5.96366C19.4793 5.54136 19.2569 5.15623 18.948 4.84662C18.639 4.537 18.2544 4.31368 17.8324 4.19891C16.2675 3.76921 10.0069 3.76221 10.0069 3.76221C10.0069 3.76221 3.74735 3.75522 2.18146 4.16593C1.75968 4.28599 1.37585 4.51246 1.06681 4.8236C0.757775 5.13474 0.533909 5.52009 0.416707 5.94267C0.00399882 7.50757 1.46411e-06 10.7533 1.46411e-06 10.7533C1.46411e-06 10.7533 -0.00399569 14.015 0.405714 15.5639C0.635552 16.4203 1.31008 17.0968 2.16747 17.3276C3.74835 17.7573 9.99193 17.7643 9.99193 17.7643C9.99193 17.7643 16.2525 17.7713 17.8174 17.3616C18.2396 17.247 18.6246 17.0242 18.9343 16.7152C19.2439 16.4062 19.4676 16.0218 19.5831 15.5998C19.9969 14.0359 19.9999 10.7912 19.9999 10.7912C19.9999 10.7912 20.0198 7.52855 19.5931 5.96366ZM8.00434 13.7601L8.00934 7.76438L13.2127 10.7673L8.00434 13.7601Z" fill="#B5B5B5"/>
</svg>
