<svg width="284" height="52" viewBox="0 0 284 52" fill="none" xmlns="http://www.w3.org/2000/svg">
<path d="M19.7646 51.1903C20.8545 51.3696 21.8834 50.6315 22.0628 49.5416L24.9857 31.7805C25.1651 30.6906 24.4269 29.6616 23.337 29.4823C22.2471 29.3029 21.2181 30.041 21.0388 31.1309L18.4407 46.9186L2.65301 44.3205C1.5631 44.1411 0.534154 44.8792 0.354791 45.9692C0.175428 47.0591 0.913572 48.088 2.00348 48.2674L19.7646 51.1903ZM56.1875 1.24042C49.6233 0.222717 41.9284 -0.31582 34.5842 0.196663C27.2805 0.706314 20.1111 2.26903 14.7651 5.62256C9.2915 9.05612 5.76601 14.3655 6.0121 21.9566C6.25159 29.3445 10.0574 38.6638 18.4643 50.3826L21.7144 48.051C13.4781 36.5698 10.2114 28.0391 10.01 21.827C9.8152 15.8181 12.4806 11.7775 16.8907 9.01106C21.4284 6.16459 27.8356 4.67731 34.8626 4.18696C41.8491 3.69944 49.2389 4.21091 55.5746 5.1932L56.1875 1.24042Z" fill="white"/>
<path d="M264.235 51.1903C263.146 51.3696 262.117 50.6315 261.937 49.5416L259.014 31.7805C258.835 30.6906 259.573 29.6616 260.663 29.4823C261.753 29.3029 262.782 30.041 262.961 31.1309L265.559 46.9186L281.347 44.3205C282.437 44.1411 283.466 44.8792 283.645 45.9692C283.825 47.0591 283.086 48.088 281.997 48.2674L264.235 51.1903ZM227.813 1.24042C234.377 0.222717 242.072 -0.31582 249.416 0.196663C256.719 0.706314 263.889 2.26903 269.235 5.62256C274.709 9.05612 278.234 14.3655 277.988 21.9566C277.748 29.3445 273.943 38.6638 265.536 50.3826L262.286 48.051C270.522 36.5698 273.789 28.0391 273.99 21.827C274.185 15.8181 271.519 11.7775 267.109 9.01106C262.572 6.16459 256.164 4.67731 249.137 4.18696C242.151 3.69944 234.761 4.21091 228.425 5.1932L227.813 1.24042Z" fill="white"/>
</svg>
