<svg width="20" height="21" viewBox="0 0 20 21" fill="none" xmlns="http://www.w3.org/2000/svg">
<path d="M19.8667 6.67386C19.8667 6.67286 19.8657 6.67286 19.8667 6.67386L19.8637 6.66985L19.8627 6.66885V6.66785C19.8006 6.57646 19.7205 6.49873 19.6274 6.43943L10.4502 0.34822C10.3159 0.262398 10.1599 0.216797 10.0005 0.216797C9.84118 0.216797 9.68516 0.262398 9.55088 0.34822L0.371685 6.44244C0.25578 6.51449 0.16059 6.61545 0.0954554 6.73541C0.0303205 6.85537 -0.00252178 6.99021 0.000151036 7.1267V13.2981C-0.00236781 13.4575 0.0433633 13.6139 0.13134 13.7469V13.7479L0.133342 13.7499L0.143357 13.7649V13.7669H0.144358L0.14536 13.7679L0.146361 13.7689C0.209452 13.8571 0.286563 13.9292 0.372686 13.9843L9.55088 20.0775C9.6828 20.1685 9.8393 20.2171 9.99952 20.2168C10.1605 20.2177 10.3178 20.1691 10.4502 20.0775L19.6284 13.9843C19.744 13.9115 19.839 13.8101 19.904 13.6899C19.9691 13.5697 20.0021 13.4347 19.9999 13.2981V7.1267C20.0024 6.96574 19.9559 6.80782 19.8667 6.67386ZM10.7967 2.49417L17.7597 7.11567L14.5721 9.23157L10.7957 6.69089V2.49417H10.7967ZM9.20238 2.49417V6.69089L5.42595 9.23157L2.24037 7.11668L9.20238 2.49417ZM1.59645 8.60341L3.99489 10.1963L1.59645 11.8103V8.60341ZM9.20238 17.9316L2.23236 13.3061L5.43196 11.1521L9.20238 13.6547V17.9316ZM9.99852 12.2682L6.86602 10.1863L9.99852 8.07744L13.134 10.1863L9.99852 12.2682ZM10.7967 17.9316V13.6537L14.5681 11.1511L17.7657 13.3051L10.7967 17.9316ZM18.4046 11.8103L16.0052 10.1963L18.4046 8.60341V11.8103Z" fill="#B5B5B5"/>
</svg>
