<svg width="20" height="21" viewBox="0 0 20 21" fill="none" xmlns="http://www.w3.org/2000/svg">
<g clip-path="url(#clip0_67_2140)">
<path d="M5.88671 0.216797C0.427719 0.216797 0 0.644015 0 6.10351V14.3301C0 19.7891 0.427719 20.2168 5.88671 20.2168H14.1133C19.5723 20.2168 20 19.7895 20 14.3301V6.10351C20 0.644015 19.5727 0.216797 14.1133 0.216797H5.88671ZM4.58399 2.2168H15.416C17.8126 2.2168 18 2.40428 18 4.80078V15.6328C18 18.0294 17.812 18.2168 15.416 18.2168H4.58399C2.18749 18.2168 2 18.0288 2 15.6328V4.80078C2 2.40428 2.18749 2.2168 4.58399 2.2168ZM5.25097 3.46875C4.43647 3.46875 3.77637 4.12888 3.77637 4.94238C3.77637 5.75588 4.43597 6.417 5.25097 6.417C6.06347 6.417 6.72363 5.75638 6.72363 4.94238C6.72363 4.12988 6.06347 3.46875 5.25097 3.46875ZM12.9668 7.37793C11.7368 7.37793 10.9117 8.05288 10.5742 8.69238H10.5391V7.58105H8.11426V15.7168H10.6406V11.6914C10.6406 10.6299 10.8437 9.60254 12.1592 9.60254C13.4562 9.60254 13.4727 10.8172 13.4727 11.7607V15.7168H16V11.2539C16 9.06291 15.5273 7.37793 12.9668 7.37793ZM3.98633 7.58105V15.7168H6.51464V7.58105H3.98633Z" fill="#B5B5B5"/>
</g>
<defs>
<clipPath id="clip0_67_2140">
<rect width="20" height="20" fill="white" transform="translate(0 0.216797)"/>
</clipPath>
</defs>
</svg>
