<svg width="20" height="21" viewBox="0 0 20 21" fill="none" xmlns="http://www.w3.org/2000/svg">
<path d="M17.9452 6.38243C17.9585 6.56053 17.9585 6.73761 17.9585 6.91469C17.9585 12.334 13.8337 18.5786 6.29554 18.5786C3.97313 18.5786 1.81559 17.9059 0 16.7376C0.329737 16.7753 0.647262 16.7885 0.99023 16.7885C2.83533 16.793 4.62818 16.176 6.07979 15.037C5.22432 15.0215 4.39505 14.7393 3.70775 14.2297C3.02046 13.7201 2.50945 13.0086 2.24608 12.1946C2.49949 12.2322 2.75392 12.2577 3.02056 12.2577C3.38795 12.2577 3.75738 12.2068 4.10035 12.1182C3.17195 11.9308 2.33714 11.4276 1.73786 10.6941C1.13857 9.96071 0.811819 9.04236 0.813149 8.09523V8.04434C1.35966 8.34864 1.99369 8.53895 2.66538 8.56439C2.10268 8.19047 1.64128 7.68308 1.32235 7.08749C1.00342 6.49189 0.836875 5.82661 0.837574 5.151C0.837574 4.38976 1.0401 3.69161 1.39528 3.08302C2.42534 4.35008 3.71006 5.38666 5.16623 6.12562C6.6224 6.86457 8.21755 7.28942 9.84836 7.37266C9.78526 7.06735 9.74659 6.75084 9.74659 6.43331C9.74632 5.89491 9.85217 5.36173 10.0581 4.86425C10.264 4.36678 10.5659 3.91476 10.9467 3.53405C11.3274 3.15334 11.7794 2.8514 12.2769 2.64548C12.7743 2.43957 13.3075 2.33372 13.8459 2.33398C15.0265 2.33398 16.092 2.82859 16.841 3.62851C17.7588 3.45104 18.6389 3.11601 19.4423 2.63828C19.1364 3.58558 18.4956 4.38884 17.6399 4.89759C18.4539 4.80476 19.2494 4.5907 20 4.26254C19.4394 5.07986 18.7447 5.79658 17.9452 6.38243Z" fill="#B5B5B5"/>
</svg>
