<svg width="840" height="195" viewBox="0 0 840 195" fill="none" xmlns="http://www.w3.org/2000/svg">
<rect width="340" height="127" transform="translate(0 34)" fill="white"/>
<rect width="340" height="59" transform="translate(0 34)" fill="#369CFC"/>
<path d="M136.32 67.3984C136.596 67.3984 136.841 67.3464 137.055 67.2422C137.268 67.1328 137.435 66.9818 137.555 66.7891C137.68 66.5911 137.745 66.3594 137.75 66.0938H139.867C139.862 66.6875 139.703 67.2161 139.391 67.6797C139.078 68.138 138.659 68.5 138.133 68.7656C137.607 69.026 137.018 69.1562 136.367 69.1562C135.711 69.1562 135.138 69.0469 134.648 68.8281C134.164 68.6094 133.76 68.3073 133.438 67.9219C133.115 67.5312 132.872 67.0781 132.711 66.5625C132.549 66.0417 132.469 65.4844 132.469 64.8906V64.6641C132.469 64.0651 132.549 63.5078 132.711 62.9922C132.872 62.4714 133.115 62.0182 133.438 61.6328C133.76 61.2422 134.164 60.9375 134.648 60.7188C135.133 60.5 135.701 60.3906 136.352 60.3906C137.044 60.3906 137.651 60.5234 138.172 60.7891C138.698 61.0547 139.109 61.4349 139.406 61.9297C139.708 62.4193 139.862 63 139.867 63.6719H137.75C137.745 63.3906 137.685 63.1354 137.57 62.9062C137.461 62.6771 137.299 62.4948 137.086 62.3594C136.878 62.2188 136.62 62.1484 136.312 62.1484C135.984 62.1484 135.716 62.2188 135.508 62.3594C135.299 62.4948 135.138 62.6823 135.023 62.9219C134.909 63.1562 134.828 63.4245 134.781 63.7266C134.74 64.0234 134.719 64.3359 134.719 64.6641V64.8906C134.719 65.2188 134.74 65.5339 134.781 65.8359C134.823 66.138 134.901 66.4062 135.016 66.6406C135.135 66.875 135.299 67.0599 135.508 67.1953C135.716 67.3307 135.987 67.3984 136.32 67.3984ZM145.734 67.0938V63.3281C145.734 63.0573 145.69 62.8255 145.602 62.6328C145.513 62.4349 145.375 62.2812 145.188 62.1719C145.005 62.0625 144.768 62.0078 144.477 62.0078C144.227 62.0078 144.01 62.0521 143.828 62.1406C143.646 62.224 143.505 62.3464 143.406 62.5078C143.307 62.6641 143.258 62.849 143.258 63.0625H141.008C141.008 62.7031 141.091 62.362 141.258 62.0391C141.424 61.7161 141.667 61.4323 141.984 61.1875C142.302 60.9375 142.68 60.7422 143.117 60.6016C143.56 60.4609 144.055 60.3906 144.602 60.3906C145.258 60.3906 145.841 60.5 146.352 60.7188C146.862 60.9375 147.263 61.2656 147.555 61.7031C147.852 62.1406 148 62.6875 148 63.3438V66.9609C148 67.4245 148.029 67.8047 148.086 68.1016C148.143 68.3932 148.227 68.6484 148.336 68.8672V69H146.062C145.953 68.7708 145.87 68.4844 145.812 68.1406C145.76 67.7917 145.734 67.4427 145.734 67.0938ZM146.031 63.8516L146.047 65.125H144.789C144.492 65.125 144.234 65.1589 144.016 65.2266C143.797 65.2943 143.617 65.3906 143.477 65.5156C143.336 65.6354 143.232 65.776 143.164 65.9375C143.102 66.099 143.07 66.276 143.07 66.4688C143.07 66.6615 143.115 66.8359 143.203 66.9922C143.292 67.1432 143.419 67.263 143.586 67.3516C143.753 67.4349 143.948 67.4766 144.172 67.4766C144.51 67.4766 144.805 67.4089 145.055 67.2734C145.305 67.138 145.497 66.9714 145.633 66.7734C145.773 66.5755 145.846 66.388 145.852 66.2109L146.445 67.1641C146.362 67.3776 146.247 67.599 146.102 67.8281C145.961 68.0573 145.781 68.2734 145.562 68.4766C145.344 68.6745 145.081 68.8385 144.773 68.9688C144.466 69.0938 144.102 69.1562 143.68 69.1562C143.143 69.1562 142.656 69.0495 142.219 68.8359C141.786 68.6172 141.443 68.3177 141.188 67.9375C140.938 67.5521 140.812 67.1146 140.812 66.625C140.812 66.1823 140.896 65.7891 141.062 65.4453C141.229 65.1016 141.474 64.8125 141.797 64.5781C142.125 64.3385 142.534 64.1589 143.023 64.0391C143.513 63.9141 144.081 63.8516 144.727 63.8516H146.031ZM153.875 60.5469V62.1406H148.953V60.5469H153.875ZM150.172 58.4609H152.422V66.4531C152.422 66.6979 152.453 66.8854 152.516 67.0156C152.583 67.1458 152.682 67.237 152.812 67.2891C152.943 67.3359 153.107 67.3594 153.305 67.3594C153.445 67.3594 153.57 67.3542 153.68 67.3438C153.794 67.3281 153.891 67.3125 153.969 67.2969L153.977 68.9531C153.784 69.0156 153.576 69.0651 153.352 69.1016C153.128 69.138 152.88 69.1562 152.609 69.1562C152.115 69.1562 151.682 69.0755 151.312 68.9141C150.948 68.7474 150.667 68.4818 150.469 68.1172C150.271 67.7526 150.172 67.2734 150.172 66.6797V58.4609ZM159.047 69.1562C158.391 69.1562 157.802 69.0521 157.281 68.8438C156.76 68.6302 156.318 68.3359 155.953 67.9609C155.594 67.5859 155.318 67.151 155.125 66.6562C154.932 66.1562 154.836 65.625 154.836 65.0625V64.75C154.836 64.1094 154.927 63.5234 155.109 62.9922C155.292 62.4609 155.552 62 155.891 61.6094C156.234 61.2188 156.651 60.9193 157.141 60.7109C157.63 60.4974 158.182 60.3906 158.797 60.3906C159.396 60.3906 159.927 60.4896 160.391 60.6875C160.854 60.8854 161.242 61.1667 161.555 61.5312C161.872 61.8958 162.112 62.3333 162.273 62.8438C162.435 63.349 162.516 63.9115 162.516 64.5312V65.4688H155.797V63.9688H160.305V63.7969C160.305 63.4844 160.247 63.2057 160.133 62.9609C160.023 62.7109 159.857 62.513 159.633 62.3672C159.409 62.2214 159.122 62.1484 158.773 62.1484C158.477 62.1484 158.221 62.2135 158.008 62.3438C157.794 62.474 157.62 62.6562 157.484 62.8906C157.354 63.125 157.255 63.401 157.188 63.7188C157.125 64.0312 157.094 64.375 157.094 64.75V65.0625C157.094 65.401 157.141 65.7135 157.234 66C157.333 66.2865 157.471 66.5339 157.648 66.7422C157.831 66.9505 158.049 67.112 158.305 67.2266C158.565 67.3411 158.859 67.3984 159.188 67.3984C159.594 67.3984 159.971 67.3203 160.32 67.1641C160.674 67.0026 160.979 66.7604 161.234 66.4375L162.328 67.625C162.151 67.8802 161.909 68.125 161.602 68.3594C161.299 68.5938 160.935 68.7865 160.508 68.9375C160.081 69.0833 159.594 69.1562 159.047 69.1562ZM169.148 60.5469H171.188V68.7188C171.188 69.4896 171.016 70.1432 170.672 70.6797C170.333 71.2214 169.859 71.6302 169.25 71.9062C168.641 72.1875 167.932 72.3281 167.125 72.3281C166.771 72.3281 166.396 72.2812 166 72.1875C165.609 72.0938 165.234 71.9479 164.875 71.75C164.521 71.5521 164.224 71.3021 163.984 71L164.977 69.6719C165.237 69.974 165.539 70.2083 165.883 70.375C166.227 70.5469 166.607 70.6328 167.023 70.6328C167.43 70.6328 167.773 70.5573 168.055 70.4062C168.336 70.2604 168.552 70.0443 168.703 69.7578C168.854 69.4766 168.93 69.1354 168.93 68.7344V62.5L169.148 60.5469ZM163.461 64.875V64.7109C163.461 64.0651 163.539 63.4792 163.695 62.9531C163.857 62.4219 164.083 61.9661 164.375 61.5859C164.672 61.2057 165.031 60.9115 165.453 60.7031C165.875 60.4948 166.352 60.3906 166.883 60.3906C167.445 60.3906 167.917 60.4948 168.297 60.7031C168.677 60.9115 168.99 61.2083 169.234 61.5938C169.479 61.974 169.669 62.4245 169.805 62.9453C169.945 63.4609 170.055 64.026 170.133 64.6406V65C170.055 65.5885 169.938 66.1354 169.781 66.6406C169.625 67.1458 169.419 67.5885 169.164 67.9688C168.909 68.3438 168.591 68.6354 168.211 68.8438C167.836 69.0521 167.388 69.1562 166.867 69.1562C166.346 69.1562 165.875 69.0495 165.453 68.8359C165.036 68.6224 164.68 68.3229 164.383 67.9375C164.086 67.5521 163.857 67.099 163.695 66.5781C163.539 66.0573 163.461 65.4896 163.461 64.875ZM165.711 64.7109V64.875C165.711 65.224 165.745 65.5495 165.812 65.8516C165.88 66.1536 165.984 66.4219 166.125 66.6562C166.271 66.8854 166.451 67.0651 166.664 67.1953C166.883 67.3203 167.141 67.3828 167.438 67.3828C167.849 67.3828 168.185 67.2969 168.445 67.125C168.706 66.9479 168.901 66.7057 169.031 66.3984C169.161 66.0911 169.237 65.737 169.258 65.3359V64.3125C169.247 63.9844 169.203 63.6901 169.125 63.4297C169.047 63.1641 168.938 62.9375 168.797 62.75C168.656 62.5625 168.474 62.4167 168.25 62.3125C168.026 62.2083 167.76 62.1562 167.453 62.1562C167.156 62.1562 166.898 62.224 166.68 62.3594C166.466 62.4896 166.286 62.6693 166.141 62.8984C166 63.1276 165.893 63.3984 165.82 63.7109C165.747 64.0182 165.711 64.3516 165.711 64.7109ZM172.578 64.8594V64.6953C172.578 64.0755 172.667 63.5052 172.844 62.9844C173.021 62.4583 173.279 62.0026 173.617 61.6172C173.956 61.2318 174.372 60.9323 174.867 60.7188C175.362 60.5 175.93 60.3906 176.57 60.3906C177.211 60.3906 177.781 60.5 178.281 60.7188C178.781 60.9323 179.201 61.2318 179.539 61.6172C179.883 62.0026 180.143 62.4583 180.32 62.9844C180.497 63.5052 180.586 64.0755 180.586 64.6953V64.8594C180.586 65.474 180.497 66.0443 180.32 66.5703C180.143 67.0911 179.883 67.5469 179.539 67.9375C179.201 68.3229 178.784 68.6224 178.289 68.8359C177.794 69.0495 177.227 69.1562 176.586 69.1562C175.945 69.1562 175.375 69.0495 174.875 68.8359C174.38 68.6224 173.961 68.3229 173.617 67.9375C173.279 67.5469 173.021 67.0911 172.844 66.5703C172.667 66.0443 172.578 65.474 172.578 64.8594ZM174.828 64.6953V64.8594C174.828 65.2135 174.859 65.5443 174.922 65.8516C174.984 66.1589 175.083 66.4297 175.219 66.6641C175.359 66.8932 175.542 67.0729 175.766 67.2031C175.99 67.3333 176.263 67.3984 176.586 67.3984C176.898 67.3984 177.167 67.3333 177.391 67.2031C177.615 67.0729 177.794 66.8932 177.93 66.6641C178.065 66.4297 178.164 66.1589 178.227 65.8516C178.294 65.5443 178.328 65.2135 178.328 64.8594V64.6953C178.328 64.3516 178.294 64.0286 178.227 63.7266C178.164 63.4193 178.062 63.1484 177.922 62.9141C177.786 62.6745 177.607 62.487 177.383 62.3516C177.159 62.2161 176.888 62.1484 176.57 62.1484C176.253 62.1484 175.982 62.2161 175.758 62.3516C175.539 62.487 175.359 62.6745 175.219 62.9141C175.083 63.1484 174.984 63.4193 174.922 63.7266C174.859 64.0286 174.828 64.3516 174.828 64.6953ZM184.219 62.3906V69H181.969V60.5469H184.086L184.219 62.3906ZM186.766 60.4922L186.727 62.5781C186.617 62.5625 186.484 62.5495 186.328 62.5391C186.177 62.5234 186.039 62.5156 185.914 62.5156C185.596 62.5156 185.32 62.5573 185.086 62.6406C184.857 62.7188 184.664 62.8359 184.508 62.9922C184.357 63.1484 184.242 63.3385 184.164 63.5625C184.091 63.7865 184.049 64.0417 184.039 64.3281L183.586 64.1875C183.586 63.6406 183.641 63.138 183.75 62.6797C183.859 62.2161 184.018 61.8125 184.227 61.4688C184.44 61.125 184.701 60.8594 185.008 60.6719C185.315 60.4844 185.667 60.3906 186.062 60.3906C186.188 60.3906 186.315 60.401 186.445 60.4219C186.576 60.4375 186.682 60.4609 186.766 60.4922ZM190.203 60.5469V69H187.945V60.5469H190.203ZM187.805 58.3438C187.805 58.0156 187.919 57.7448 188.148 57.5312C188.378 57.3177 188.685 57.2109 189.07 57.2109C189.451 57.2109 189.755 57.3177 189.984 57.5312C190.219 57.7448 190.336 58.0156 190.336 58.3438C190.336 58.6719 190.219 58.9427 189.984 59.1562C189.755 59.3698 189.451 59.4766 189.07 59.4766C188.685 59.4766 188.378 59.3698 188.148 59.1562C187.919 58.9427 187.805 58.6719 187.805 58.3438ZM195.953 69.1562C195.297 69.1562 194.708 69.0521 194.188 68.8438C193.667 68.6302 193.224 68.3359 192.859 67.9609C192.5 67.5859 192.224 67.151 192.031 66.6562C191.839 66.1562 191.742 65.625 191.742 65.0625V64.75C191.742 64.1094 191.833 63.5234 192.016 62.9922C192.198 62.4609 192.458 62 192.797 61.6094C193.141 61.2188 193.557 60.9193 194.047 60.7109C194.536 60.4974 195.089 60.3906 195.703 60.3906C196.302 60.3906 196.833 60.4896 197.297 60.6875C197.76 60.8854 198.148 61.1667 198.461 61.5312C198.779 61.8958 199.018 62.3333 199.18 62.8438C199.341 63.349 199.422 63.9115 199.422 64.5312V65.4688H192.703V63.9688H197.211V63.7969C197.211 63.4844 197.154 63.2057 197.039 62.9609C196.93 62.7109 196.763 62.513 196.539 62.3672C196.315 62.2214 196.029 62.1484 195.68 62.1484C195.383 62.1484 195.128 62.2135 194.914 62.3438C194.701 62.474 194.526 62.6562 194.391 62.8906C194.26 63.125 194.161 63.401 194.094 63.7188C194.031 64.0312 194 64.375 194 64.75V65.0625C194 65.401 194.047 65.7135 194.141 66C194.24 66.2865 194.378 66.5339 194.555 66.7422C194.737 66.9505 194.956 67.112 195.211 67.2266C195.471 67.3411 195.766 67.3984 196.094 67.3984C196.5 67.3984 196.878 67.3203 197.227 67.1641C197.581 67.0026 197.885 66.7604 198.141 66.4375L199.234 67.625C199.057 67.8802 198.815 68.125 198.508 68.3594C198.206 68.5938 197.841 68.7865 197.414 68.9375C196.987 69.0833 196.5 69.1562 195.953 69.1562ZM205.273 66.6641C205.273 66.5026 205.227 66.3568 205.133 66.2266C205.039 66.0964 204.865 65.9766 204.609 65.8672C204.359 65.7526 203.997 65.6484 203.523 65.5547C203.096 65.4609 202.698 65.3438 202.328 65.2031C201.964 65.0573 201.646 64.8828 201.375 64.6797C201.109 64.4766 200.901 64.237 200.75 63.9609C200.599 63.6797 200.523 63.3594 200.523 63C200.523 62.6458 200.599 62.3125 200.75 62C200.906 61.6875 201.128 61.4115 201.414 61.1719C201.706 60.9271 202.06 60.737 202.477 60.6016C202.898 60.4609 203.372 60.3906 203.898 60.3906C204.633 60.3906 205.263 60.5078 205.789 60.7422C206.32 60.9766 206.727 61.2995 207.008 61.7109C207.294 62.1172 207.438 62.5807 207.438 63.1016H205.188C205.188 62.8828 205.141 62.6875 205.047 62.5156C204.958 62.3385 204.818 62.2005 204.625 62.1016C204.438 61.9974 204.193 61.9453 203.891 61.9453C203.641 61.9453 203.424 61.9896 203.242 62.0781C203.06 62.1615 202.919 62.276 202.82 62.4219C202.727 62.5625 202.68 62.7188 202.68 62.8906C202.68 63.0208 202.706 63.138 202.758 63.2422C202.815 63.3411 202.906 63.4323 203.031 63.5156C203.156 63.599 203.318 63.6771 203.516 63.75C203.719 63.8177 203.969 63.8802 204.266 63.9375C204.875 64.0625 205.419 64.2266 205.898 64.4297C206.378 64.6276 206.758 64.8984 207.039 65.2422C207.32 65.5807 207.461 66.026 207.461 66.5781C207.461 66.9531 207.378 67.2969 207.211 67.6094C207.044 67.9219 206.805 68.1953 206.492 68.4297C206.18 68.6589 205.805 68.8385 205.367 68.9688C204.935 69.0938 204.448 69.1562 203.906 69.1562C203.12 69.1562 202.453 69.0156 201.906 68.7344C201.365 68.4531 200.953 68.0964 200.672 67.6641C200.396 67.2266 200.258 66.7786 200.258 66.3203H202.391C202.401 66.6276 202.479 66.875 202.625 67.0625C202.776 67.25 202.966 67.3854 203.195 67.4688C203.43 67.5521 203.682 67.5938 203.953 67.5938C204.245 67.5938 204.487 67.5547 204.68 67.4766C204.872 67.3932 205.018 67.2839 205.117 67.1484C205.221 67.0078 205.273 66.8464 205.273 66.6641Z" fill="white"/>
<rect width="340" height="34" transform="translate(0 93)" fill="white"/>
<path d="M56.9238 110.588H55.1562V109.265H56.9238C57.1647 109.265 57.36 109.224 57.5098 109.143C57.6595 109.061 57.7686 108.949 57.8369 108.806C57.9085 108.659 57.9443 108.495 57.9443 108.312C57.9443 108.117 57.9085 107.937 57.8369 107.771C57.7686 107.604 57.6595 107.471 57.5098 107.37C57.36 107.266 57.1647 107.214 56.9238 107.214H55.8008V113H54.0869V105.891H56.9238C57.4935 105.891 57.9834 105.995 58.3936 106.203C58.807 106.411 59.1243 106.698 59.3457 107.062C59.5671 107.424 59.6777 107.837 59.6777 108.303C59.6777 108.762 59.5671 109.162 59.3457 109.504C59.1243 109.846 58.807 110.113 58.3936 110.305C57.9834 110.493 57.4935 110.588 56.9238 110.588ZM62.3145 105.891V113H60.6006V105.891H62.3145ZM66.5576 105.891L63.8037 109.494L62.1924 111.257L61.8799 109.685L62.9102 108.122L64.4434 105.891H66.5576ZM64.5312 113L62.6953 109.797L64.0283 108.815L66.5576 113H64.5312Z" fill="#369CFC"/>
<path d="M167.158 107.66V114H166.068V107.66H167.158ZM165.986 105.979C165.986 105.803 166.039 105.654 166.145 105.533C166.254 105.412 166.414 105.352 166.625 105.352C166.832 105.352 166.99 105.412 167.1 105.533C167.213 105.654 167.27 105.803 167.27 105.979C167.27 106.146 167.213 106.291 167.1 106.412C166.99 106.529 166.832 106.588 166.625 106.588C166.414 106.588 166.254 106.529 166.145 106.412C166.039 106.291 165.986 106.146 165.986 105.979ZM172.895 112.77V105H173.984V114H172.988L172.895 112.77ZM168.629 110.9V110.777C168.629 110.293 168.688 109.854 168.805 109.459C168.926 109.061 169.096 108.719 169.314 108.434C169.537 108.148 169.801 107.93 170.105 107.777C170.414 107.621 170.758 107.543 171.137 107.543C171.535 107.543 171.883 107.613 172.18 107.754C172.48 107.891 172.734 108.092 172.941 108.357C173.152 108.619 173.318 108.936 173.439 109.307C173.561 109.678 173.645 110.098 173.691 110.566V111.105C173.648 111.57 173.564 111.988 173.439 112.359C173.318 112.73 173.152 113.047 172.941 113.309C172.734 113.57 172.48 113.771 172.18 113.912C171.879 114.049 171.527 114.117 171.125 114.117C170.754 114.117 170.414 114.037 170.105 113.877C169.801 113.717 169.537 113.492 169.314 113.203C169.096 112.914 168.926 112.574 168.805 112.184C168.688 111.789 168.629 111.361 168.629 110.9ZM169.719 110.777V110.9C169.719 111.217 169.75 111.514 169.812 111.791C169.879 112.068 169.98 112.312 170.117 112.523C170.254 112.734 170.428 112.9 170.639 113.021C170.85 113.139 171.102 113.197 171.395 113.197C171.754 113.197 172.049 113.121 172.279 112.969C172.514 112.816 172.701 112.615 172.842 112.365C172.982 112.115 173.092 111.844 173.17 111.551V110.139C173.123 109.924 173.055 109.717 172.965 109.518C172.879 109.314 172.766 109.135 172.625 108.979C172.488 108.818 172.318 108.691 172.115 108.598C171.916 108.504 171.68 108.457 171.406 108.457C171.109 108.457 170.854 108.52 170.639 108.645C170.428 108.766 170.254 108.934 170.117 109.148C169.98 109.359 169.879 109.605 169.812 109.887C169.75 110.164 169.719 110.461 169.719 110.777Z" fill="#757575"/>
<path d="M272.793 105.469V114H271.662V105.469H272.793ZM281.412 105.469V114H280.275L275.98 107.42V114H274.85V105.469H275.98L280.293 112.066V105.469H281.412ZM286.393 105.469V114H285.279V105.469H286.393ZM289.135 105.469V106.395H282.543V105.469H289.135Z" fill="#757575"/>
<rect width="340" height="34" transform="translate(0 127)" fill="white"/>
<path d="M59.0576 139.891V147H57.3438V139.891H59.0576ZM63.3008 139.891L60.5469 143.494L58.9355 145.257L58.623 143.685L59.6533 142.122L61.1865 139.891H63.3008ZM61.2744 147L59.4385 143.797L60.7715 142.815L63.3008 147H61.2744Z" fill="#369CFC"/>
<path d="M163.455 141.66V142.492H160.027V141.66H163.455ZM161.188 140.119H162.271V146.43C162.271 146.645 162.305 146.807 162.371 146.916C162.438 147.025 162.523 147.098 162.629 147.133C162.734 147.168 162.848 147.186 162.969 147.186C163.059 147.186 163.152 147.178 163.25 147.162C163.352 147.143 163.428 147.127 163.479 147.115L163.484 148C163.398 148.027 163.285 148.053 163.145 148.076C163.008 148.104 162.842 148.117 162.646 148.117C162.381 148.117 162.137 148.064 161.914 147.959C161.691 147.854 161.514 147.678 161.381 147.432C161.252 147.182 161.188 146.846 161.188 146.424V140.119ZM165.904 141.66V148H164.814V141.66H165.904ZM164.732 139.979C164.732 139.803 164.785 139.654 164.891 139.533C165 139.412 165.16 139.352 165.371 139.352C165.578 139.352 165.736 139.412 165.846 139.533C165.959 139.654 166.016 139.803 166.016 139.979C166.016 140.146 165.959 140.291 165.846 140.412C165.736 140.529 165.578 140.588 165.371 140.588C165.16 140.588 165 140.529 164.891 140.412C164.785 140.291 164.732 140.146 164.732 139.979ZM170.299 141.66V142.492H166.871V141.66H170.299ZM168.031 140.119H169.115V146.43C169.115 146.645 169.148 146.807 169.215 146.916C169.281 147.025 169.367 147.098 169.473 147.133C169.578 147.168 169.691 147.186 169.812 147.186C169.902 147.186 169.996 147.178 170.094 147.162C170.195 147.143 170.271 147.127 170.322 147.115L170.328 148C170.242 148.027 170.129 148.053 169.988 148.076C169.852 148.104 169.686 148.117 169.49 148.117C169.225 148.117 168.98 148.064 168.758 147.959C168.535 147.854 168.357 147.678 168.225 147.432C168.096 147.182 168.031 146.846 168.031 146.424V140.119ZM172.748 139V148H171.658V139H172.748ZM177.119 148.117C176.678 148.117 176.277 148.043 175.918 147.895C175.562 147.742 175.256 147.529 174.998 147.256C174.744 146.982 174.549 146.658 174.412 146.283C174.275 145.908 174.207 145.498 174.207 145.053V144.807C174.207 144.291 174.283 143.832 174.436 143.43C174.588 143.023 174.795 142.68 175.057 142.398C175.318 142.117 175.615 141.904 175.947 141.76C176.279 141.615 176.623 141.543 176.979 141.543C177.432 141.543 177.822 141.621 178.15 141.777C178.482 141.934 178.754 142.152 178.965 142.434C179.176 142.711 179.332 143.039 179.434 143.418C179.535 143.793 179.586 144.203 179.586 144.648V145.135H174.852V144.25H178.502V144.168C178.486 143.887 178.428 143.613 178.326 143.348C178.229 143.082 178.072 142.863 177.857 142.691C177.643 142.52 177.35 142.434 176.979 142.434C176.732 142.434 176.506 142.486 176.299 142.592C176.092 142.693 175.914 142.846 175.766 143.049C175.617 143.252 175.502 143.5 175.42 143.793C175.338 144.086 175.297 144.424 175.297 144.807V145.053C175.297 145.354 175.338 145.637 175.42 145.902C175.506 146.164 175.629 146.395 175.789 146.594C175.953 146.793 176.15 146.949 176.381 147.062C176.615 147.176 176.881 147.232 177.178 147.232C177.561 147.232 177.885 147.154 178.15 146.998C178.416 146.842 178.648 146.633 178.848 146.371L179.504 146.893C179.367 147.1 179.193 147.297 178.982 147.484C178.771 147.672 178.512 147.824 178.203 147.941C177.898 148.059 177.537 148.117 177.119 148.117Z" fill="#757575"/>
<path d="M242.406 146.705L244.92 139.469H246.145L242.986 148H242.113L242.406 146.705ZM240.057 139.469L242.547 146.705L242.857 148H241.984L238.832 139.469H240.057ZM250.006 140.225L247.182 148H246.027L249.279 139.469H250.023L250.006 140.225ZM252.373 148L249.543 140.225L249.525 139.469H250.27L253.533 148H252.373ZM252.227 144.842V145.768H247.434V144.842H252.227ZM254.676 139.469H257.5C258.141 139.469 258.682 139.566 259.123 139.762C259.568 139.957 259.906 140.246 260.137 140.629C260.371 141.008 260.488 141.475 260.488 142.029C260.488 142.42 260.408 142.777 260.248 143.102C260.092 143.422 259.865 143.695 259.568 143.922C259.275 144.145 258.924 144.311 258.514 144.42L258.197 144.543H255.543L255.531 143.623H257.535C257.941 143.623 258.279 143.553 258.549 143.412C258.818 143.268 259.021 143.074 259.158 142.832C259.295 142.59 259.363 142.322 259.363 142.029C259.363 141.701 259.299 141.414 259.17 141.168C259.041 140.922 258.838 140.732 258.561 140.6C258.287 140.463 257.934 140.395 257.5 140.395H255.807V148H254.676V139.469ZM259.662 148L257.588 144.133L258.766 144.127L260.869 147.93V148H259.662ZM267.221 145.287H268.346C268.287 145.826 268.133 146.309 267.883 146.734C267.633 147.16 267.279 147.498 266.822 147.748C266.365 147.994 265.795 148.117 265.111 148.117C264.611 148.117 264.156 148.023 263.746 147.836C263.34 147.648 262.99 147.383 262.697 147.039C262.404 146.691 262.178 146.275 262.018 145.791C261.861 145.303 261.783 144.76 261.783 144.162V143.312C261.783 142.715 261.861 142.174 262.018 141.689C262.178 141.201 262.406 140.783 262.703 140.436C263.004 140.088 263.365 139.82 263.787 139.633C264.209 139.445 264.684 139.352 265.211 139.352C265.855 139.352 266.4 139.473 266.846 139.715C267.291 139.957 267.637 140.293 267.883 140.723C268.133 141.148 268.287 141.643 268.346 142.205H267.221C267.166 141.807 267.064 141.465 266.916 141.18C266.768 140.891 266.557 140.668 266.283 140.512C266.01 140.355 265.652 140.277 265.211 140.277C264.832 140.277 264.498 140.35 264.209 140.494C263.924 140.639 263.684 140.844 263.488 141.109C263.297 141.375 263.152 141.693 263.055 142.064C262.957 142.436 262.908 142.848 262.908 143.301V144.162C262.908 144.58 262.951 144.973 263.037 145.34C263.127 145.707 263.262 146.029 263.441 146.307C263.621 146.584 263.85 146.803 264.127 146.963C264.404 147.119 264.732 147.197 265.111 147.197C265.592 147.197 265.975 147.121 266.26 146.969C266.545 146.816 266.76 146.598 266.904 146.312C267.053 146.027 267.158 145.686 267.221 145.287ZM275.459 143.137V144.057H270.842V143.137H275.459ZM271.018 139.469V148H269.887V139.469H271.018ZM276.443 139.469V148H275.318V139.469H276.443ZM281.717 140.225L278.893 148H277.738L280.99 139.469H281.734L281.717 140.225ZM284.084 148L281.254 140.225L281.236 139.469H281.98L285.244 148H284.084ZM283.938 144.842V145.768H279.145V144.842H283.938ZM286.387 139.469H289.211C289.852 139.469 290.393 139.566 290.834 139.762C291.279 139.957 291.617 140.246 291.848 140.629C292.082 141.008 292.199 141.475 292.199 142.029C292.199 142.42 292.119 142.777 291.959 143.102C291.803 143.422 291.576 143.695 291.279 143.922C290.986 144.145 290.635 144.311 290.225 144.42L289.908 144.543H287.254L287.242 143.623H289.246C289.652 143.623 289.99 143.553 290.26 143.412C290.529 143.268 290.732 143.074 290.869 142.832C291.006 142.59 291.074 142.322 291.074 142.029C291.074 141.701 291.01 141.414 290.881 141.168C290.752 140.922 290.549 140.732 290.271 140.6C289.998 140.463 289.645 140.395 289.211 140.395H287.518V148H286.387V139.469ZM291.373 148L289.299 144.133L290.477 144.127L292.58 147.93V148H291.373ZM293.576 144.59V144.531C293.576 143.68 293.672 142.91 293.863 142.223C294.055 141.531 294.299 140.926 294.596 140.406C294.893 139.887 295.205 139.457 295.533 139.117C295.861 138.773 296.164 138.525 296.441 138.373L296.67 139.088C296.439 139.264 296.205 139.506 295.967 139.814C295.732 140.123 295.516 140.502 295.316 140.951C295.121 141.4 294.963 141.922 294.842 142.516C294.721 143.109 294.66 143.777 294.66 144.52V144.602C294.66 145.344 294.721 146.014 294.842 146.611C294.963 147.205 295.121 147.729 295.316 148.182C295.516 148.635 295.732 149.02 295.967 149.336C296.205 149.656 296.439 149.91 296.67 150.098L296.441 150.754C296.164 150.602 295.861 150.354 295.533 150.01C295.205 149.67 294.893 149.24 294.596 148.721C294.299 148.205 294.055 147.602 293.863 146.91C293.672 146.219 293.576 145.445 293.576 144.59ZM303.203 147.109V148H297.619V147.221L300.414 144.109C300.758 143.727 301.023 143.402 301.211 143.137C301.402 142.867 301.535 142.627 301.609 142.416C301.688 142.201 301.727 141.982 301.727 141.76C301.727 141.479 301.668 141.225 301.551 140.998C301.438 140.768 301.27 140.584 301.047 140.447C300.824 140.311 300.555 140.242 300.238 140.242C299.859 140.242 299.543 140.316 299.289 140.465C299.039 140.609 298.852 140.812 298.727 141.074C298.602 141.336 298.539 141.637 298.539 141.977H297.455C297.455 141.496 297.561 141.057 297.771 140.658C297.982 140.26 298.295 139.943 298.709 139.709C299.123 139.471 299.633 139.352 300.238 139.352C300.777 139.352 301.238 139.447 301.621 139.639C302.004 139.826 302.297 140.092 302.5 140.436C302.707 140.775 302.811 141.174 302.811 141.631C302.811 141.881 302.768 142.135 302.682 142.393C302.6 142.646 302.484 142.9 302.336 143.154C302.191 143.408 302.021 143.658 301.826 143.904C301.635 144.15 301.43 144.393 301.211 144.631L298.926 147.109H303.203ZM305.734 143.939L304.867 143.717L305.295 139.469H309.672V140.471H306.215L305.957 142.791C306.113 142.701 306.311 142.617 306.549 142.539C306.791 142.461 307.068 142.422 307.381 142.422C307.775 142.422 308.129 142.49 308.441 142.627C308.754 142.76 309.02 142.951 309.238 143.201C309.461 143.451 309.631 143.752 309.748 144.104C309.865 144.455 309.924 144.848 309.924 145.281C309.924 145.691 309.867 146.068 309.754 146.412C309.645 146.756 309.479 147.057 309.256 147.314C309.033 147.568 308.752 147.766 308.412 147.906C308.076 148.047 307.68 148.117 307.223 148.117C306.879 148.117 306.553 148.07 306.244 147.977C305.939 147.879 305.666 147.732 305.424 147.537C305.186 147.338 304.99 147.092 304.838 146.799C304.689 146.502 304.596 146.154 304.557 145.756H305.588C305.635 146.076 305.729 146.346 305.869 146.564C306.01 146.783 306.193 146.949 306.42 147.062C306.65 147.172 306.918 147.227 307.223 147.227C307.48 147.227 307.709 147.182 307.908 147.092C308.107 147.002 308.275 146.873 308.412 146.705C308.549 146.537 308.652 146.334 308.723 146.096C308.797 145.857 308.834 145.59 308.834 145.293C308.834 145.023 308.797 144.773 308.723 144.543C308.648 144.312 308.537 144.111 308.389 143.939C308.244 143.768 308.066 143.635 307.855 143.541C307.645 143.443 307.402 143.395 307.129 143.395C306.766 143.395 306.49 143.443 306.303 143.541C306.119 143.639 305.93 143.771 305.734 143.939ZM312.484 143.939L311.617 143.717L312.045 139.469H316.422V140.471H312.965L312.707 142.791C312.863 142.701 313.061 142.617 313.299 142.539C313.541 142.461 313.818 142.422 314.131 142.422C314.525 142.422 314.879 142.49 315.191 142.627C315.504 142.76 315.77 142.951 315.988 143.201C316.211 143.451 316.381 143.752 316.498 144.104C316.615 144.455 316.674 144.848 316.674 145.281C316.674 145.691 316.617 146.068 316.504 146.412C316.395 146.756 316.229 147.057 316.006 147.314C315.783 147.568 315.502 147.766 315.162 147.906C314.826 148.047 314.43 148.117 313.973 148.117C313.629 148.117 313.303 148.07 312.994 147.977C312.689 147.879 312.416 147.732 312.174 147.537C311.936 147.338 311.74 147.092 311.588 146.799C311.439 146.502 311.346 146.154 311.307 145.756H312.338C312.385 146.076 312.479 146.346 312.619 146.564C312.76 146.783 312.943 146.949 313.17 147.062C313.4 147.172 313.668 147.227 313.973 147.227C314.23 147.227 314.459 147.182 314.658 147.092C314.857 147.002 315.025 146.873 315.162 146.705C315.299 146.537 315.402 146.334 315.473 146.096C315.547 145.857 315.584 145.59 315.584 145.293C315.584 145.023 315.547 144.773 315.473 144.543C315.398 144.312 315.287 144.111 315.139 143.939C314.994 143.768 314.816 143.635 314.605 143.541C314.395 143.443 314.152 143.395 313.879 143.395C313.516 143.395 313.24 143.443 313.053 143.541C312.869 143.639 312.68 143.771 312.484 143.939ZM320.477 144.531V144.59C320.477 145.445 320.381 146.219 320.189 146.91C319.998 147.602 319.754 148.205 319.457 148.721C319.16 149.24 318.848 149.67 318.52 150.01C318.191 150.354 317.889 150.602 317.611 150.754L317.383 150.098C317.613 149.922 317.846 149.676 318.08 149.359C318.314 149.047 318.531 148.66 318.73 148.199C318.93 147.742 319.09 147.215 319.211 146.617C319.332 146.016 319.393 145.344 319.393 144.602V144.52C319.393 143.777 319.328 143.107 319.199 142.51C319.07 141.908 318.902 141.379 318.695 140.922C318.492 140.465 318.273 140.08 318.039 139.768C317.809 139.451 317.59 139.207 317.383 139.035L317.611 138.373C317.889 138.525 318.191 138.773 318.52 139.117C318.848 139.457 319.16 139.887 319.457 140.406C319.754 140.926 319.998 141.531 320.189 142.223C320.381 142.91 320.477 143.68 320.477 144.531Z" fill="#757575"/>
<path d="M340 98H487M500 98H487M487 98L500 108M487 98L500 88" stroke="white" stroke-width="2"/>
<circle cx="479" cy="97" r="9" stroke="white" stroke-width="2"/>
<rect width="340" height="195" transform="translate(500)" fill="white"/>
<rect width="340" height="59" transform="translate(500)" fill="#369CFC"/>
<path d="M657.938 23V35H655.68V23H657.938ZM659.438 30.8594V30.6953C659.438 30.0755 659.526 29.5052 659.703 28.9844C659.88 28.4583 660.138 28.0026 660.477 27.6172C660.815 27.2318 661.232 26.9323 661.727 26.7188C662.221 26.5 662.789 26.3906 663.43 26.3906C664.07 26.3906 664.641 26.5 665.141 26.7188C665.641 26.9323 666.06 27.2318 666.398 27.6172C666.742 28.0026 667.003 28.4583 667.18 28.9844C667.357 29.5052 667.445 30.0755 667.445 30.6953V30.8594C667.445 31.474 667.357 32.0443 667.18 32.5703C667.003 33.0911 666.742 33.5469 666.398 33.9375C666.06 34.3229 665.643 34.6224 665.148 34.8359C664.654 35.0495 664.086 35.1562 663.445 35.1562C662.805 35.1562 662.234 35.0495 661.734 34.8359C661.24 34.6224 660.82 34.3229 660.477 33.9375C660.138 33.5469 659.88 33.0911 659.703 32.5703C659.526 32.0443 659.438 31.474 659.438 30.8594ZM661.688 30.6953V30.8594C661.688 31.2135 661.719 31.5443 661.781 31.8516C661.844 32.1589 661.943 32.4297 662.078 32.6641C662.219 32.8932 662.401 33.0729 662.625 33.2031C662.849 33.3333 663.122 33.3984 663.445 33.3984C663.758 33.3984 664.026 33.3333 664.25 33.2031C664.474 33.0729 664.654 32.8932 664.789 32.6641C664.924 32.4297 665.023 32.1589 665.086 31.8516C665.154 31.5443 665.188 31.2135 665.188 30.8594V30.6953C665.188 30.3516 665.154 30.0286 665.086 29.7266C665.023 29.4193 664.922 29.1484 664.781 28.9141C664.646 28.6745 664.466 28.487 664.242 28.3516C664.018 28.2161 663.747 28.1484 663.43 28.1484C663.112 28.1484 662.841 28.2161 662.617 28.3516C662.398 28.487 662.219 28.6745 662.078 28.9141C661.943 29.1484 661.844 29.4193 661.781 29.7266C661.719 30.0286 661.688 30.3516 661.688 30.6953ZM674.18 26.5469H676.219V34.7188C676.219 35.4896 676.047 36.1432 675.703 36.6797C675.365 37.2214 674.891 37.6302 674.281 37.9062C673.672 38.1875 672.964 38.3281 672.156 38.3281C671.802 38.3281 671.427 38.2812 671.031 38.1875C670.641 38.0938 670.266 37.9479 669.906 37.75C669.552 37.5521 669.255 37.3021 669.016 37L670.008 35.6719C670.268 35.974 670.57 36.2083 670.914 36.375C671.258 36.5469 671.638 36.6328 672.055 36.6328C672.461 36.6328 672.805 36.5573 673.086 36.4062C673.367 36.2604 673.583 36.0443 673.734 35.7578C673.885 35.4766 673.961 35.1354 673.961 34.7344V28.5L674.18 26.5469ZM668.492 30.875V30.7109C668.492 30.0651 668.57 29.4792 668.727 28.9531C668.888 28.4219 669.115 27.9661 669.406 27.5859C669.703 27.2057 670.062 26.9115 670.484 26.7031C670.906 26.4948 671.383 26.3906 671.914 26.3906C672.477 26.3906 672.948 26.4948 673.328 26.7031C673.708 26.9115 674.021 27.2083 674.266 27.5938C674.51 27.974 674.701 28.4245 674.836 28.9453C674.977 29.4609 675.086 30.026 675.164 30.6406V31C675.086 31.5885 674.969 32.1354 674.812 32.6406C674.656 33.1458 674.451 33.5885 674.195 33.9688C673.94 34.3438 673.622 34.6354 673.242 34.8438C672.867 35.0521 672.419 35.1562 671.898 35.1562C671.378 35.1562 670.906 35.0495 670.484 34.8359C670.068 34.6224 669.711 34.3229 669.414 33.9375C669.117 33.5521 668.888 33.099 668.727 32.5781C668.57 32.0573 668.492 31.4896 668.492 30.875ZM670.742 30.7109V30.875C670.742 31.224 670.776 31.5495 670.844 31.8516C670.911 32.1536 671.016 32.4219 671.156 32.6562C671.302 32.8854 671.482 33.0651 671.695 33.1953C671.914 33.3203 672.172 33.3828 672.469 33.3828C672.88 33.3828 673.216 33.2969 673.477 33.125C673.737 32.9479 673.932 32.7057 674.062 32.3984C674.193 32.0911 674.268 31.737 674.289 31.3359V30.3125C674.279 29.9844 674.234 29.6901 674.156 29.4297C674.078 29.1641 673.969 28.9375 673.828 28.75C673.688 28.5625 673.505 28.4167 673.281 28.3125C673.057 28.2083 672.792 28.1562 672.484 28.1562C672.188 28.1562 671.93 28.224 671.711 28.3594C671.497 28.4896 671.318 28.6693 671.172 28.8984C671.031 29.1276 670.924 29.3984 670.852 29.7109C670.779 30.0182 670.742 30.3516 670.742 30.7109ZM682.539 32.6641C682.539 32.5026 682.492 32.3568 682.398 32.2266C682.305 32.0964 682.13 31.9766 681.875 31.8672C681.625 31.7526 681.263 31.6484 680.789 31.5547C680.362 31.4609 679.964 31.3438 679.594 31.2031C679.229 31.0573 678.911 30.8828 678.641 30.6797C678.375 30.4766 678.167 30.237 678.016 29.9609C677.865 29.6797 677.789 29.3594 677.789 29C677.789 28.6458 677.865 28.3125 678.016 28C678.172 27.6875 678.393 27.4115 678.68 27.1719C678.971 26.9271 679.326 26.737 679.742 26.6016C680.164 26.4609 680.638 26.3906 681.164 26.3906C681.898 26.3906 682.529 26.5078 683.055 26.7422C683.586 26.9766 683.992 27.2995 684.273 27.7109C684.56 28.1172 684.703 28.5807 684.703 29.1016H682.453C682.453 28.8828 682.406 28.6875 682.312 28.5156C682.224 28.3385 682.083 28.2005 681.891 28.1016C681.703 27.9974 681.458 27.9453 681.156 27.9453C680.906 27.9453 680.69 27.9896 680.508 28.0781C680.326 28.1615 680.185 28.276 680.086 28.4219C679.992 28.5625 679.945 28.7188 679.945 28.8906C679.945 29.0208 679.971 29.138 680.023 29.2422C680.081 29.3411 680.172 29.4323 680.297 29.5156C680.422 29.599 680.583 29.6771 680.781 29.75C680.984 29.8177 681.234 29.8802 681.531 29.9375C682.141 30.0625 682.685 30.2266 683.164 30.4297C683.643 30.6276 684.023 30.8984 684.305 31.2422C684.586 31.5807 684.727 32.026 684.727 32.5781C684.727 32.9531 684.643 33.2969 684.477 33.6094C684.31 33.9219 684.07 34.1953 683.758 34.4297C683.445 34.6589 683.07 34.8385 682.633 34.9688C682.201 35.0938 681.714 35.1562 681.172 35.1562C680.385 35.1562 679.719 35.0156 679.172 34.7344C678.63 34.4531 678.219 34.0964 677.938 33.6641C677.661 33.2266 677.523 32.7786 677.523 32.3203H679.656C679.667 32.6276 679.745 32.875 679.891 33.0625C680.042 33.25 680.232 33.3854 680.461 33.4688C680.695 33.5521 680.948 33.5938 681.219 33.5938C681.51 33.5938 681.753 33.5547 681.945 33.4766C682.138 33.3932 682.284 33.2839 682.383 33.1484C682.487 33.0078 682.539 32.8464 682.539 32.6641Z" fill="white"/>
<rect width="340" height="34" transform="translate(500 59)" fill="white"/>
<path d="M556.924 76.5879H555.156V75.2646H556.924C557.165 75.2646 557.36 75.224 557.51 75.1426C557.66 75.0612 557.769 74.9489 557.837 74.8057C557.909 74.6592 557.944 74.4948 557.944 74.3125C557.944 74.1172 557.909 73.9365 557.837 73.7705C557.769 73.6045 557.66 73.471 557.51 73.3701C557.36 73.266 557.165 73.2139 556.924 73.2139H555.801V79H554.087V71.8906H556.924C557.493 71.8906 557.983 71.9948 558.394 72.2031C558.807 72.4115 559.124 72.6979 559.346 73.0625C559.567 73.4238 559.678 73.8372 559.678 74.3027C559.678 74.7617 559.567 75.1621 559.346 75.5039C559.124 75.8457 558.807 76.1126 558.394 76.3047C557.983 76.4935 557.493 76.5879 556.924 76.5879ZM562.314 71.8906V79H560.601V71.8906H562.314ZM566.558 71.8906L563.804 75.4941L562.192 77.2568L561.88 75.6846L562.91 74.1221L564.443 71.8906H566.558ZM564.531 79L562.695 75.7969L564.028 74.8154L566.558 79H564.531Z" fill="#369CFC"/>
<path d="M667.158 73.6602V80H666.068V73.6602H667.158ZM665.986 71.9785C665.986 71.8027 666.039 71.6543 666.145 71.5332C666.254 71.4121 666.414 71.3516 666.625 71.3516C666.832 71.3516 666.99 71.4121 667.1 71.5332C667.213 71.6543 667.27 71.8027 667.27 71.9785C667.27 72.1465 667.213 72.291 667.1 72.4121C666.99 72.5293 666.832 72.5879 666.625 72.5879C666.414 72.5879 666.254 72.5293 666.145 72.4121C666.039 72.291 665.986 72.1465 665.986 71.9785ZM672.895 78.7695V71H673.984V80H672.988L672.895 78.7695ZM668.629 76.9004V76.7773C668.629 76.293 668.688 75.8535 668.805 75.459C668.926 75.0605 669.096 74.7188 669.314 74.4336C669.537 74.1484 669.801 73.9297 670.105 73.7773C670.414 73.6211 670.758 73.543 671.137 73.543C671.535 73.543 671.883 73.6133 672.18 73.7539C672.48 73.8906 672.734 74.0918 672.941 74.3574C673.152 74.6191 673.318 74.9355 673.439 75.3066C673.561 75.6777 673.645 76.0977 673.691 76.5664V77.1055C673.648 77.5703 673.564 77.9883 673.439 78.3594C673.318 78.7305 673.152 79.0469 672.941 79.3086C672.734 79.5703 672.48 79.7715 672.18 79.9121C671.879 80.0488 671.527 80.1172 671.125 80.1172C670.754 80.1172 670.414 80.0371 670.105 79.877C669.801 79.7168 669.537 79.4922 669.314 79.2031C669.096 78.9141 668.926 78.5742 668.805 78.1836C668.688 77.7891 668.629 77.3613 668.629 76.9004ZM669.719 76.7773V76.9004C669.719 77.2168 669.75 77.5137 669.812 77.791C669.879 78.0684 669.98 78.3125 670.117 78.5234C670.254 78.7344 670.428 78.9004 670.639 79.0215C670.85 79.1387 671.102 79.1973 671.395 79.1973C671.754 79.1973 672.049 79.1211 672.279 78.9688C672.514 78.8164 672.701 78.6152 672.842 78.3652C672.982 78.1152 673.092 77.8438 673.17 77.5508V76.1387C673.123 75.9238 673.055 75.7168 672.965 75.5176C672.879 75.3145 672.766 75.1348 672.625 74.9785C672.488 74.8184 672.318 74.6914 672.115 74.5977C671.916 74.5039 671.68 74.457 671.406 74.457C671.109 74.457 670.854 74.5195 670.639 74.6445C670.428 74.7656 670.254 74.9336 670.117 75.1484C669.98 75.3594 669.879 75.6055 669.812 75.8867C669.75 76.1641 669.719 76.4609 669.719 76.7773Z" fill="#757575"/>
<path d="M772.793 71.4688V80H771.662V71.4688H772.793ZM781.412 71.4688V80H780.275L775.98 73.4199V80H774.85V71.4688H775.98L780.293 78.0664V71.4688H781.412ZM786.393 71.4688V80H785.279V71.4688H786.393ZM789.135 71.4688V72.3945H782.543V71.4688H789.135Z" fill="#757575"/>
<rect width="340" height="34" transform="translate(500 93)" fill="white"/>
<path d="M556.323 105.891V113H554.609V105.891H556.323ZM559.087 108.85V110.168H555.835V108.85H559.087ZM559.365 105.891V107.214H555.835V105.891H559.365ZM561.792 105.891V113H560.078V105.891H561.792ZM566.035 105.891L563.281 109.494L561.67 111.257L561.357 109.685L562.388 108.122L563.921 105.891H566.035ZM564.009 113L562.173 109.797L563.506 108.815L566.035 113H564.009Z" fill="#369CFC"/>
<path d="M642.543 113.227C642.801 113.227 643.039 113.174 643.258 113.068C643.477 112.963 643.656 112.818 643.797 112.635C643.938 112.447 644.018 112.234 644.037 111.996H645.068C645.049 112.371 644.922 112.721 644.688 113.045C644.457 113.365 644.154 113.625 643.779 113.824C643.404 114.02 642.992 114.117 642.543 114.117C642.066 114.117 641.65 114.033 641.295 113.865C640.943 113.697 640.65 113.467 640.416 113.174C640.186 112.881 640.012 112.545 639.895 112.166C639.781 111.783 639.725 111.379 639.725 110.953V110.707C639.725 110.281 639.781 109.879 639.895 109.5C640.012 109.117 640.186 108.779 640.416 108.486C640.65 108.193 640.943 107.963 641.295 107.795C641.65 107.627 642.066 107.543 642.543 107.543C643.039 107.543 643.473 107.645 643.844 107.848C644.215 108.047 644.506 108.32 644.717 108.668C644.932 109.012 645.049 109.402 645.068 109.84H644.037C644.018 109.578 643.943 109.342 643.814 109.131C643.689 108.92 643.518 108.752 643.299 108.627C643.084 108.498 642.832 108.434 642.543 108.434C642.211 108.434 641.932 108.5 641.705 108.633C641.482 108.762 641.305 108.938 641.172 109.16C641.043 109.379 640.949 109.623 640.891 109.893C640.836 110.158 640.809 110.43 640.809 110.707V110.953C640.809 111.23 640.836 111.504 640.891 111.773C640.945 112.043 641.037 112.287 641.166 112.506C641.299 112.725 641.477 112.9 641.699 113.033C641.926 113.162 642.207 113.227 642.543 113.227ZM650.025 112.916V109.652C650.025 109.402 649.975 109.186 649.873 109.002C649.775 108.814 649.627 108.67 649.428 108.568C649.229 108.467 648.982 108.416 648.689 108.416C648.416 108.416 648.176 108.463 647.969 108.557C647.766 108.65 647.605 108.773 647.488 108.926C647.375 109.078 647.318 109.242 647.318 109.418H646.234C646.234 109.191 646.293 108.967 646.41 108.744C646.527 108.521 646.695 108.32 646.914 108.141C647.137 107.957 647.402 107.812 647.711 107.707C648.023 107.598 648.371 107.543 648.754 107.543C649.215 107.543 649.621 107.621 649.973 107.777C650.328 107.934 650.605 108.17 650.805 108.486C651.008 108.799 651.109 109.191 651.109 109.664V112.617C651.109 112.828 651.127 113.053 651.162 113.291C651.201 113.529 651.258 113.734 651.332 113.906V114H650.201C650.146 113.875 650.104 113.709 650.072 113.502C650.041 113.291 650.025 113.096 650.025 112.916ZM650.213 110.156L650.225 110.918H649.129C648.82 110.918 648.545 110.943 648.303 110.994C648.061 111.041 647.857 111.113 647.693 111.211C647.529 111.309 647.404 111.432 647.318 111.58C647.232 111.725 647.189 111.895 647.189 112.09C647.189 112.289 647.234 112.471 647.324 112.635C647.414 112.799 647.549 112.93 647.729 113.027C647.912 113.121 648.137 113.168 648.402 113.168C648.734 113.168 649.027 113.098 649.281 112.957C649.535 112.816 649.736 112.645 649.885 112.441C650.037 112.238 650.119 112.041 650.131 111.85L650.594 112.371C650.566 112.535 650.492 112.717 650.371 112.916C650.25 113.115 650.088 113.307 649.885 113.49C649.686 113.67 649.447 113.82 649.17 113.941C648.896 114.059 648.588 114.117 648.244 114.117C647.814 114.117 647.438 114.033 647.113 113.865C646.793 113.697 646.543 113.473 646.363 113.191C646.188 112.906 646.1 112.588 646.1 112.236C646.1 111.896 646.166 111.598 646.299 111.34C646.432 111.078 646.623 110.861 646.873 110.689C647.123 110.514 647.424 110.381 647.775 110.291C648.127 110.201 648.52 110.156 648.953 110.156H650.213ZM655.469 107.66V108.492H652.041V107.66H655.469ZM653.201 106.119H654.285V112.43C654.285 112.645 654.318 112.807 654.385 112.916C654.451 113.025 654.537 113.098 654.643 113.133C654.748 113.168 654.861 113.186 654.982 113.186C655.072 113.186 655.166 113.178 655.264 113.162C655.365 113.143 655.441 113.127 655.492 113.115L655.498 114C655.412 114.027 655.299 114.053 655.158 114.076C655.021 114.104 654.855 114.117 654.66 114.117C654.395 114.117 654.15 114.064 653.928 113.959C653.705 113.854 653.527 113.678 653.395 113.432C653.266 113.182 653.201 112.846 653.201 112.424V106.119ZM659.371 114.117C658.93 114.117 658.529 114.043 658.17 113.895C657.814 113.742 657.508 113.529 657.25 113.256C656.996 112.982 656.801 112.658 656.664 112.283C656.527 111.908 656.459 111.498 656.459 111.053V110.807C656.459 110.291 656.535 109.832 656.688 109.43C656.84 109.023 657.047 108.68 657.309 108.398C657.57 108.117 657.867 107.904 658.199 107.76C658.531 107.615 658.875 107.543 659.23 107.543C659.684 107.543 660.074 107.621 660.402 107.777C660.734 107.934 661.006 108.152 661.217 108.434C661.428 108.711 661.584 109.039 661.686 109.418C661.787 109.793 661.838 110.203 661.838 110.648V111.135H657.104V110.25H660.754V110.168C660.738 109.887 660.68 109.613 660.578 109.348C660.48 109.082 660.324 108.863 660.109 108.691C659.895 108.52 659.602 108.434 659.23 108.434C658.984 108.434 658.758 108.486 658.551 108.592C658.344 108.693 658.166 108.846 658.018 109.049C657.869 109.252 657.754 109.5 657.672 109.793C657.59 110.086 657.549 110.424 657.549 110.807V111.053C657.549 111.354 657.59 111.637 657.672 111.902C657.758 112.164 657.881 112.395 658.041 112.594C658.205 112.793 658.402 112.949 658.633 113.062C658.867 113.176 659.133 113.232 659.43 113.232C659.812 113.232 660.137 113.154 660.402 112.998C660.668 112.842 660.9 112.633 661.1 112.371L661.756 112.893C661.619 113.1 661.445 113.297 661.234 113.484C661.023 113.672 660.764 113.824 660.455 113.941C660.15 114.059 659.789 114.117 659.371 114.117ZM667.211 107.66H668.195V113.865C668.195 114.424 668.082 114.9 667.855 115.295C667.629 115.689 667.312 115.988 666.906 116.191C666.504 116.398 666.039 116.502 665.512 116.502C665.293 116.502 665.035 116.467 664.738 116.396C664.445 116.33 664.156 116.215 663.871 116.051C663.59 115.891 663.354 115.674 663.162 115.4L663.73 114.756C663.996 115.076 664.273 115.299 664.562 115.424C664.855 115.549 665.145 115.611 665.43 115.611C665.773 115.611 666.07 115.547 666.32 115.418C666.57 115.289 666.764 115.098 666.9 114.844C667.041 114.594 667.111 114.285 667.111 113.918V109.055L667.211 107.66ZM662.846 110.9V110.777C662.846 110.293 662.902 109.854 663.016 109.459C663.133 109.061 663.299 108.719 663.514 108.434C663.732 108.148 663.996 107.93 664.305 107.777C664.613 107.621 664.961 107.543 665.348 107.543C665.746 107.543 666.094 107.613 666.391 107.754C666.691 107.891 666.945 108.092 667.152 108.357C667.363 108.619 667.529 108.936 667.65 109.307C667.771 109.678 667.855 110.098 667.902 110.566V111.105C667.859 111.57 667.775 111.988 667.65 112.359C667.529 112.73 667.363 113.047 667.152 113.309C666.945 113.57 666.691 113.771 666.391 113.912C666.09 114.049 665.738 114.117 665.336 114.117C664.957 114.117 664.613 114.037 664.305 113.877C664 113.717 663.738 113.492 663.52 113.203C663.301 112.914 663.133 112.574 663.016 112.184C662.902 111.789 662.846 111.361 662.846 110.9ZM663.93 110.777V110.9C663.93 111.217 663.961 111.514 664.023 111.791C664.09 112.068 664.189 112.312 664.322 112.523C664.459 112.734 664.633 112.9 664.844 113.021C665.055 113.139 665.307 113.197 665.6 113.197C665.959 113.197 666.256 113.121 666.49 112.969C666.725 112.816 666.91 112.615 667.047 112.365C667.188 112.115 667.297 111.844 667.375 111.551V110.139C667.332 109.924 667.266 109.717 667.176 109.518C667.09 109.314 666.977 109.135 666.836 108.979C666.699 108.818 666.529 108.691 666.326 108.598C666.123 108.504 665.885 108.457 665.611 108.457C665.314 108.457 665.059 108.52 664.844 108.645C664.633 108.766 664.459 108.934 664.322 109.148C664.189 109.359 664.09 109.605 664.023 109.887C663.961 110.164 663.93 110.461 663.93 110.777ZM669.555 110.9V110.766C669.555 110.309 669.621 109.885 669.754 109.494C669.887 109.1 670.078 108.758 670.328 108.469C670.578 108.176 670.881 107.949 671.236 107.789C671.592 107.625 671.99 107.543 672.432 107.543C672.877 107.543 673.277 107.625 673.633 107.789C673.992 107.949 674.297 108.176 674.547 108.469C674.801 108.758 674.994 109.1 675.127 109.494C675.26 109.885 675.326 110.309 675.326 110.766V110.9C675.326 111.357 675.26 111.781 675.127 112.172C674.994 112.562 674.801 112.904 674.547 113.197C674.297 113.486 673.994 113.713 673.639 113.877C673.287 114.037 672.889 114.117 672.443 114.117C671.998 114.117 671.598 114.037 671.242 113.877C670.887 113.713 670.582 113.486 670.328 113.197C670.078 112.904 669.887 112.562 669.754 112.172C669.621 111.781 669.555 111.357 669.555 110.9ZM670.639 110.766V110.9C670.639 111.217 670.676 111.516 670.75 111.797C670.824 112.074 670.936 112.32 671.084 112.535C671.236 112.75 671.426 112.92 671.652 113.045C671.879 113.166 672.143 113.227 672.443 113.227C672.74 113.227 673 113.166 673.223 113.045C673.449 112.92 673.637 112.75 673.785 112.535C673.934 112.32 674.045 112.074 674.119 111.797C674.197 111.516 674.236 111.217 674.236 110.9V110.766C674.236 110.453 674.197 110.158 674.119 109.881C674.045 109.6 673.932 109.352 673.779 109.137C673.631 108.918 673.443 108.746 673.217 108.621C672.994 108.496 672.732 108.434 672.432 108.434C672.135 108.434 671.873 108.496 671.646 108.621C671.424 108.746 671.236 108.918 671.084 109.137C670.936 109.352 670.824 109.6 670.75 109.881C670.676 110.158 670.639 110.453 670.639 110.766ZM677.77 108.656V114H676.686V107.66H677.74L677.77 108.656ZM679.75 107.625L679.744 108.633C679.654 108.613 679.568 108.602 679.486 108.598C679.408 108.59 679.318 108.586 679.217 108.586C678.967 108.586 678.746 108.625 678.555 108.703C678.363 108.781 678.201 108.891 678.068 109.031C677.936 109.172 677.83 109.34 677.752 109.535C677.678 109.727 677.629 109.938 677.605 110.168L677.301 110.344C677.301 109.961 677.338 109.602 677.412 109.266C677.49 108.93 677.609 108.633 677.77 108.375C677.93 108.113 678.133 107.91 678.379 107.766C678.629 107.617 678.926 107.543 679.27 107.543C679.348 107.543 679.438 107.553 679.539 107.572C679.641 107.588 679.711 107.605 679.75 107.625ZM682.639 113.344L684.402 107.66H685.562L683.02 114.979C682.961 115.135 682.883 115.303 682.785 115.482C682.691 115.666 682.57 115.84 682.422 116.004C682.273 116.168 682.094 116.301 681.883 116.402C681.676 116.508 681.428 116.561 681.139 116.561C681.053 116.561 680.943 116.549 680.811 116.525C680.678 116.502 680.584 116.482 680.529 116.467L680.523 115.588C680.555 115.592 680.604 115.596 680.67 115.6C680.74 115.607 680.789 115.611 680.816 115.611C681.062 115.611 681.271 115.578 681.443 115.512C681.615 115.449 681.76 115.342 681.877 115.189C681.998 115.041 682.102 114.836 682.188 114.574L682.639 113.344ZM681.344 107.66L682.99 112.582L683.271 113.725L682.492 114.123L680.16 107.66H681.344ZM691.111 114V114.891H685.738V114H691.111ZM693.133 107.66V114H692.043V107.66H693.133ZM691.961 105.979C691.961 105.803 692.014 105.654 692.119 105.533C692.229 105.412 692.389 105.352 692.6 105.352C692.807 105.352 692.965 105.412 693.074 105.533C693.188 105.654 693.244 105.803 693.244 105.979C693.244 106.146 693.188 106.291 693.074 106.412C692.965 106.529 692.807 106.588 692.6 106.588C692.389 106.588 692.229 106.529 692.119 106.412C692.014 106.291 691.961 106.146 691.961 105.979ZM698.869 112.77V105H699.959V114H698.963L698.869 112.77ZM694.604 110.9V110.777C694.604 110.293 694.662 109.854 694.779 109.459C694.9 109.061 695.07 108.719 695.289 108.434C695.512 108.148 695.775 107.93 696.08 107.777C696.389 107.621 696.732 107.543 697.111 107.543C697.51 107.543 697.857 107.613 698.154 107.754C698.455 107.891 698.709 108.092 698.916 108.357C699.127 108.619 699.293 108.936 699.414 109.307C699.535 109.678 699.619 110.098 699.666 110.566V111.105C699.623 111.57 699.539 111.988 699.414 112.359C699.293 112.73 699.127 113.047 698.916 113.309C698.709 113.57 698.455 113.771 698.154 113.912C697.854 114.049 697.502 114.117 697.1 114.117C696.729 114.117 696.389 114.037 696.08 113.877C695.775 113.717 695.512 113.492 695.289 113.203C695.07 112.914 694.9 112.574 694.779 112.184C694.662 111.789 694.604 111.361 694.604 110.9ZM695.693 110.777V110.9C695.693 111.217 695.725 111.514 695.787 111.791C695.854 112.068 695.955 112.312 696.092 112.523C696.229 112.734 696.402 112.9 696.613 113.021C696.824 113.139 697.076 113.197 697.369 113.197C697.729 113.197 698.023 113.121 698.254 112.969C698.488 112.816 698.676 112.615 698.816 112.365C698.957 112.115 699.066 111.844 699.145 111.551V110.139C699.098 109.924 699.029 109.717 698.939 109.518C698.854 109.314 698.74 109.135 698.6 108.979C698.463 108.818 698.293 108.691 698.09 108.598C697.891 108.504 697.654 108.457 697.381 108.457C697.084 108.457 696.828 108.52 696.613 108.645C696.402 108.766 696.229 108.934 696.092 109.148C695.955 109.359 695.854 109.605 695.787 109.887C695.725 110.164 695.693 110.461 695.693 110.777Z" fill="#757575"/>
<path d="M772.793 105.469V114H771.662V105.469H772.793ZM781.412 105.469V114H780.275L775.98 107.42V114H774.85V105.469H775.98L780.293 112.066V105.469H781.412ZM786.393 105.469V114H785.279V105.469H786.393ZM789.135 105.469V106.395H782.543V105.469H789.135Z" fill="#757575"/>
<rect width="340" height="34" transform="translate(500 127)" fill="white"/>
<path d="M559.058 139.891V147H557.344V139.891H559.058ZM563.301 139.891L560.547 143.494L558.936 145.257L558.623 143.685L559.653 142.122L561.187 139.891H563.301ZM561.274 147L559.438 143.797L560.771 142.815L563.301 147H561.274Z" fill="#369CFC"/>
<path d="M661.615 141.66V142.492H658.188V141.66H661.615ZM659.348 140.119H660.432V146.43C660.432 146.645 660.465 146.807 660.531 146.916C660.598 147.025 660.684 147.098 660.789 147.133C660.895 147.168 661.008 147.186 661.129 147.186C661.219 147.186 661.312 147.178 661.41 147.162C661.512 147.143 661.588 147.127 661.639 147.115L661.645 148C661.559 148.027 661.445 148.053 661.305 148.076C661.168 148.104 661.002 148.117 660.807 148.117C660.541 148.117 660.297 148.064 660.074 147.959C659.852 147.854 659.674 147.678 659.541 147.432C659.412 147.182 659.348 146.846 659.348 146.424V140.119ZM664.064 141.66V148H662.975V141.66H664.064ZM662.893 139.979C662.893 139.803 662.945 139.654 663.051 139.533C663.16 139.412 663.32 139.352 663.531 139.352C663.738 139.352 663.896 139.412 664.006 139.533C664.119 139.654 664.176 139.803 664.176 139.979C664.176 140.146 664.119 140.291 664.006 140.412C663.896 140.529 663.738 140.588 663.531 140.588C663.32 140.588 663.16 140.529 663.051 140.412C662.945 140.291 662.893 140.146 662.893 139.979ZM666.883 142.92V148H665.793V141.66H666.824L666.883 142.92ZM666.66 144.59L666.156 144.572C666.16 144.139 666.217 143.738 666.326 143.371C666.436 143 666.598 142.678 666.812 142.404C667.027 142.131 667.295 141.92 667.615 141.771C667.936 141.619 668.307 141.543 668.729 141.543C669.025 141.543 669.299 141.586 669.549 141.672C669.799 141.754 670.016 141.885 670.199 142.064C670.383 142.244 670.525 142.475 670.627 142.756C670.729 143.037 670.779 143.377 670.779 143.775V148H669.695V143.828C669.695 143.496 669.639 143.23 669.525 143.031C669.416 142.832 669.26 142.688 669.057 142.598C668.854 142.504 668.615 142.457 668.342 142.457C668.021 142.457 667.754 142.514 667.539 142.627C667.324 142.74 667.152 142.896 667.023 143.096C666.895 143.295 666.801 143.523 666.742 143.781C666.688 144.035 666.66 144.305 666.66 144.59ZM670.768 143.992L670.041 144.215C670.045 143.867 670.102 143.533 670.211 143.213C670.324 142.893 670.486 142.607 670.697 142.357C670.912 142.107 671.176 141.91 671.488 141.766C671.801 141.617 672.158 141.543 672.561 141.543C672.9 141.543 673.201 141.588 673.463 141.678C673.729 141.768 673.951 141.906 674.131 142.094C674.314 142.277 674.453 142.514 674.547 142.803C674.641 143.092 674.688 143.436 674.688 143.834V148H673.598V143.822C673.598 143.467 673.541 143.191 673.428 142.996C673.318 142.797 673.162 142.658 672.959 142.58C672.76 142.498 672.521 142.457 672.244 142.457C672.006 142.457 671.795 142.498 671.611 142.58C671.428 142.662 671.273 142.775 671.148 142.92C671.023 143.061 670.928 143.223 670.861 143.406C670.799 143.59 670.768 143.785 670.768 143.992ZM678.959 148.117C678.518 148.117 678.117 148.043 677.758 147.895C677.402 147.742 677.096 147.529 676.838 147.256C676.584 146.982 676.389 146.658 676.252 146.283C676.115 145.908 676.047 145.498 676.047 145.053V144.807C676.047 144.291 676.123 143.832 676.275 143.43C676.428 143.023 676.635 142.68 676.896 142.398C677.158 142.117 677.455 141.904 677.787 141.76C678.119 141.615 678.463 141.543 678.818 141.543C679.271 141.543 679.662 141.621 679.99 141.777C680.322 141.934 680.594 142.152 680.805 142.434C681.016 142.711 681.172 143.039 681.273 143.418C681.375 143.793 681.426 144.203 681.426 144.648V145.135H676.691V144.25H680.342V144.168C680.326 143.887 680.268 143.613 680.166 143.348C680.068 143.082 679.912 142.863 679.697 142.691C679.482 142.52 679.189 142.434 678.818 142.434C678.572 142.434 678.346 142.486 678.139 142.592C677.932 142.693 677.754 142.846 677.605 143.049C677.457 143.252 677.342 143.5 677.26 143.793C677.178 144.086 677.137 144.424 677.137 144.807V145.053C677.137 145.354 677.178 145.637 677.26 145.902C677.346 146.164 677.469 146.395 677.629 146.594C677.793 146.793 677.99 146.949 678.221 147.062C678.455 147.176 678.721 147.232 679.018 147.232C679.4 147.232 679.725 147.154 679.99 146.998C680.256 146.842 680.488 146.633 680.688 146.371L681.344 146.893C681.207 147.1 681.033 147.297 680.822 147.484C680.611 147.672 680.352 147.824 680.043 147.941C679.738 148.059 679.377 148.117 678.959 148.117Z" fill="#757575"/>
<path d="M772.793 139.469V148H771.662V139.469H772.793ZM781.412 139.469V148H780.275L775.98 141.42V148H774.85V139.469H775.98L780.293 146.066V139.469H781.412ZM786.393 139.469V148H785.279V139.469H786.393ZM789.135 139.469V140.395H782.543V139.469H789.135Z" fill="#757575"/>
<rect width="340" height="34" transform="translate(500 161)" fill="white"/>
<path d="M559.058 173.891V181H557.344V173.891H559.058ZM563.301 173.891L560.547 177.494L558.936 179.257L558.623 177.685L559.653 176.122L561.187 173.891H563.301ZM561.274 181L559.438 177.797L560.771 176.815L563.301 181H561.274Z" fill="#369CFC"/>
<path d="M636.695 182H635.611V175.109C635.611 174.629 635.705 174.223 635.893 173.891C636.08 173.559 636.348 173.307 636.695 173.135C637.043 172.963 637.455 172.877 637.932 172.877C638.213 172.877 638.488 172.912 638.758 172.982C639.027 173.049 639.305 173.133 639.59 173.234L639.408 174.148C639.229 174.078 639.02 174.012 638.781 173.949C638.547 173.883 638.289 173.85 638.008 173.85C637.543 173.85 637.207 173.955 637 174.166C636.797 174.373 636.695 174.688 636.695 175.109V182ZM637.99 175.66V176.492H634.609V175.66H637.99ZM640.123 175.66V182H639.039V175.66H640.123ZM642.988 177.014V182H641.904V175.66H642.93L642.988 177.014ZM642.73 178.59L642.279 178.572C642.283 178.139 642.348 177.738 642.473 177.371C642.598 177 642.773 176.678 643 176.404C643.227 176.131 643.496 175.92 643.809 175.771C644.125 175.619 644.475 175.543 644.857 175.543C645.17 175.543 645.451 175.586 645.701 175.672C645.951 175.754 646.164 175.887 646.34 176.07C646.52 176.254 646.656 176.492 646.75 176.785C646.844 177.074 646.891 177.428 646.891 177.846V182H645.801V177.834C645.801 177.502 645.752 177.236 645.654 177.037C645.557 176.834 645.414 176.688 645.227 176.598C645.039 176.504 644.809 176.457 644.535 176.457C644.266 176.457 644.02 176.514 643.797 176.627C643.578 176.74 643.389 176.896 643.229 177.096C643.072 177.295 642.949 177.523 642.859 177.781C642.773 178.035 642.73 178.305 642.73 178.59ZM649.715 175.66V182H648.625V175.66H649.715ZM648.543 173.979C648.543 173.803 648.596 173.654 648.701 173.533C648.811 173.412 648.971 173.352 649.182 173.352C649.389 173.352 649.547 173.412 649.656 173.533C649.77 173.654 649.826 173.803 649.826 173.979C649.826 174.146 649.77 174.291 649.656 174.412C649.547 174.529 649.389 174.588 649.182 174.588C648.971 174.588 648.811 174.529 648.701 174.412C648.596 174.291 648.543 174.146 648.543 173.979ZM655.146 180.318C655.146 180.162 655.111 180.018 655.041 179.885C654.975 179.748 654.836 179.625 654.625 179.516C654.418 179.402 654.105 179.305 653.688 179.223C653.336 179.148 653.018 179.061 652.732 178.959C652.451 178.857 652.211 178.734 652.012 178.59C651.816 178.445 651.666 178.275 651.561 178.08C651.455 177.885 651.402 177.656 651.402 177.395C651.402 177.145 651.457 176.908 651.566 176.686C651.68 176.463 651.838 176.266 652.041 176.094C652.248 175.922 652.496 175.787 652.785 175.689C653.074 175.592 653.396 175.543 653.752 175.543C654.26 175.543 654.693 175.633 655.053 175.812C655.412 175.992 655.688 176.232 655.879 176.533C656.07 176.83 656.166 177.16 656.166 177.523H655.082C655.082 177.348 655.029 177.178 654.924 177.014C654.822 176.846 654.672 176.707 654.473 176.598C654.277 176.488 654.037 176.434 653.752 176.434C653.451 176.434 653.207 176.48 653.02 176.574C652.836 176.664 652.701 176.779 652.615 176.92C652.533 177.061 652.492 177.209 652.492 177.365C652.492 177.482 652.512 177.588 652.551 177.682C652.594 177.771 652.668 177.855 652.773 177.934C652.879 178.008 653.027 178.078 653.219 178.145C653.41 178.211 653.654 178.277 653.951 178.344C654.471 178.461 654.898 178.602 655.234 178.766C655.57 178.93 655.82 179.131 655.984 179.369C656.148 179.607 656.23 179.896 656.23 180.236C656.23 180.514 656.172 180.768 656.055 180.998C655.941 181.229 655.775 181.428 655.557 181.596C655.342 181.76 655.084 181.889 654.783 181.982C654.486 182.072 654.152 182.117 653.781 182.117C653.223 182.117 652.75 182.018 652.363 181.818C651.977 181.619 651.684 181.361 651.484 181.045C651.285 180.729 651.186 180.395 651.186 180.043H652.275C652.291 180.34 652.377 180.576 652.533 180.752C652.689 180.924 652.881 181.047 653.107 181.121C653.334 181.191 653.559 181.227 653.781 181.227C654.078 181.227 654.326 181.188 654.525 181.109C654.729 181.031 654.883 180.924 654.988 180.787C655.094 180.65 655.146 180.494 655.146 180.318ZM658.738 173V182H657.654V173H658.738ZM658.48 178.59L658.029 178.572C658.033 178.139 658.098 177.738 658.223 177.371C658.348 177 658.523 176.678 658.75 176.404C658.977 176.131 659.246 175.92 659.559 175.771C659.875 175.619 660.225 175.543 660.607 175.543C660.92 175.543 661.201 175.586 661.451 175.672C661.701 175.754 661.914 175.887 662.09 176.07C662.27 176.254 662.406 176.492 662.5 176.785C662.594 177.074 662.641 177.428 662.641 177.846V182H661.551V177.834C661.551 177.502 661.502 177.236 661.404 177.037C661.307 176.834 661.164 176.688 660.977 176.598C660.789 176.504 660.559 176.457 660.285 176.457C660.016 176.457 659.77 176.514 659.547 176.627C659.328 176.74 659.139 176.896 658.979 177.096C658.822 177.295 658.699 177.523 658.609 177.781C658.523 178.035 658.48 178.305 658.48 178.59ZM666.895 182.117C666.453 182.117 666.053 182.043 665.693 181.895C665.338 181.742 665.031 181.529 664.773 181.256C664.52 180.982 664.324 180.658 664.188 180.283C664.051 179.908 663.982 179.498 663.982 179.053V178.807C663.982 178.291 664.059 177.832 664.211 177.43C664.363 177.023 664.57 176.68 664.832 176.398C665.094 176.117 665.391 175.904 665.723 175.76C666.055 175.615 666.398 175.543 666.754 175.543C667.207 175.543 667.598 175.621 667.926 175.777C668.258 175.934 668.529 176.152 668.74 176.434C668.951 176.711 669.107 177.039 669.209 177.418C669.311 177.793 669.361 178.203 669.361 178.648V179.135H664.627V178.25H668.277V178.168C668.262 177.887 668.203 177.613 668.102 177.348C668.004 177.082 667.848 176.863 667.633 176.691C667.418 176.52 667.125 176.434 666.754 176.434C666.508 176.434 666.281 176.486 666.074 176.592C665.867 176.693 665.689 176.846 665.541 177.049C665.393 177.252 665.277 177.5 665.195 177.793C665.113 178.086 665.072 178.424 665.072 178.807V179.053C665.072 179.354 665.113 179.637 665.195 179.902C665.281 180.164 665.404 180.395 665.564 180.594C665.729 180.793 665.926 180.949 666.156 181.062C666.391 181.176 666.656 181.232 666.953 181.232C667.336 181.232 667.66 181.154 667.926 180.998C668.191 180.842 668.424 180.633 668.623 180.371L669.279 180.893C669.143 181.1 668.969 181.297 668.758 181.484C668.547 181.672 668.287 181.824 667.979 181.941C667.674 182.059 667.312 182.117 666.895 182.117ZM674.623 180.77V173H675.713V182H674.717L674.623 180.77ZM670.357 178.9V178.777C670.357 178.293 670.416 177.854 670.533 177.459C670.654 177.061 670.824 176.719 671.043 176.434C671.266 176.148 671.529 175.93 671.834 175.777C672.143 175.621 672.486 175.543 672.865 175.543C673.264 175.543 673.611 175.613 673.908 175.754C674.209 175.891 674.463 176.092 674.67 176.357C674.881 176.619 675.047 176.936 675.168 177.307C675.289 177.678 675.373 178.098 675.42 178.566V179.105C675.377 179.57 675.293 179.988 675.168 180.359C675.047 180.73 674.881 181.047 674.67 181.309C674.463 181.57 674.209 181.771 673.908 181.912C673.607 182.049 673.256 182.117 672.854 182.117C672.482 182.117 672.143 182.037 671.834 181.877C671.529 181.717 671.266 181.492 671.043 181.203C670.824 180.914 670.654 180.574 670.533 180.184C670.416 179.789 670.357 179.361 670.357 178.9ZM671.447 178.777V178.9C671.447 179.217 671.479 179.514 671.541 179.791C671.607 180.068 671.709 180.312 671.846 180.523C671.982 180.734 672.156 180.9 672.367 181.021C672.578 181.139 672.83 181.197 673.123 181.197C673.482 181.197 673.777 181.121 674.008 180.969C674.242 180.816 674.43 180.615 674.57 180.365C674.711 180.115 674.82 179.844 674.898 179.551V178.139C674.852 177.924 674.783 177.717 674.693 177.518C674.607 177.314 674.494 177.135 674.354 176.979C674.217 176.818 674.047 176.691 673.844 176.598C673.645 176.504 673.408 176.457 673.135 176.457C672.838 176.457 672.582 176.52 672.367 176.645C672.156 176.766 671.982 176.934 671.846 177.148C671.709 177.359 671.607 177.605 671.541 177.887C671.479 178.164 671.447 178.461 671.447 178.777ZM681.971 182V182.891H676.598V182H681.971ZM686.811 180.77V173H687.9V182H686.904L686.811 180.77ZM682.545 178.9V178.777C682.545 178.293 682.604 177.854 682.721 177.459C682.842 177.061 683.012 176.719 683.23 176.434C683.453 176.148 683.717 175.93 684.021 175.777C684.33 175.621 684.674 175.543 685.053 175.543C685.451 175.543 685.799 175.613 686.096 175.754C686.396 175.891 686.65 176.092 686.857 176.357C687.068 176.619 687.234 176.936 687.355 177.307C687.477 177.678 687.561 178.098 687.607 178.566V179.105C687.564 179.57 687.48 179.988 687.355 180.359C687.234 180.73 687.068 181.047 686.857 181.309C686.65 181.57 686.396 181.771 686.096 181.912C685.795 182.049 685.443 182.117 685.041 182.117C684.67 182.117 684.33 182.037 684.021 181.877C683.717 181.717 683.453 181.492 683.23 181.203C683.012 180.914 682.842 180.574 682.721 180.184C682.604 179.789 682.545 179.361 682.545 178.9ZM683.635 178.777V178.9C683.635 179.217 683.666 179.514 683.729 179.791C683.795 180.068 683.896 180.312 684.033 180.523C684.17 180.734 684.344 180.9 684.555 181.021C684.766 181.139 685.018 181.197 685.311 181.197C685.67 181.197 685.965 181.121 686.195 180.969C686.43 180.816 686.617 180.615 686.758 180.365C686.898 180.115 687.008 179.844 687.086 179.551V178.139C687.039 177.924 686.971 177.717 686.881 177.518C686.795 177.314 686.682 177.135 686.541 176.979C686.404 176.818 686.234 176.691 686.031 176.598C685.832 176.504 685.596 176.457 685.322 176.457C685.025 176.457 684.77 176.52 684.555 176.645C684.344 176.766 684.17 176.934 684.033 177.148C683.896 177.359 683.795 177.605 683.729 177.887C683.666 178.164 683.635 178.461 683.635 178.777ZM693.326 180.916V177.652C693.326 177.402 693.275 177.186 693.174 177.002C693.076 176.814 692.928 176.67 692.729 176.568C692.529 176.467 692.283 176.416 691.99 176.416C691.717 176.416 691.477 176.463 691.27 176.557C691.066 176.65 690.906 176.773 690.789 176.926C690.676 177.078 690.619 177.242 690.619 177.418H689.535C689.535 177.191 689.594 176.967 689.711 176.744C689.828 176.521 689.996 176.32 690.215 176.141C690.438 175.957 690.703 175.812 691.012 175.707C691.324 175.598 691.672 175.543 692.055 175.543C692.516 175.543 692.922 175.621 693.273 175.777C693.629 175.934 693.906 176.17 694.105 176.486C694.309 176.799 694.41 177.191 694.41 177.664V180.617C694.41 180.828 694.428 181.053 694.463 181.291C694.502 181.529 694.559 181.734 694.633 181.906V182H693.502C693.447 181.875 693.404 181.709 693.373 181.502C693.342 181.291 693.326 181.096 693.326 180.916ZM693.514 178.156L693.525 178.918H692.43C692.121 178.918 691.846 178.943 691.604 178.994C691.361 179.041 691.158 179.113 690.994 179.211C690.83 179.309 690.705 179.432 690.619 179.58C690.533 179.725 690.49 179.895 690.49 180.09C690.49 180.289 690.535 180.471 690.625 180.635C690.715 180.799 690.85 180.93 691.029 181.027C691.213 181.121 691.438 181.168 691.703 181.168C692.035 181.168 692.328 181.098 692.582 180.957C692.836 180.816 693.037 180.645 693.186 180.441C693.338 180.238 693.42 180.041 693.432 179.85L693.895 180.371C693.867 180.535 693.793 180.717 693.672 180.916C693.551 181.115 693.389 181.307 693.186 181.49C692.986 181.67 692.748 181.82 692.471 181.941C692.197 182.059 691.889 182.117 691.545 182.117C691.115 182.117 690.738 182.033 690.414 181.865C690.094 181.697 689.844 181.473 689.664 181.191C689.488 180.906 689.4 180.588 689.4 180.236C689.4 179.896 689.467 179.598 689.6 179.34C689.732 179.078 689.924 178.861 690.174 178.689C690.424 178.514 690.725 178.381 691.076 178.291C691.428 178.201 691.82 178.156 692.254 178.156H693.514ZM698.77 175.66V176.492H695.342V175.66H698.77ZM696.502 174.119H697.586V180.43C697.586 180.645 697.619 180.807 697.686 180.916C697.752 181.025 697.838 181.098 697.943 181.133C698.049 181.168 698.162 181.186 698.283 181.186C698.373 181.186 698.467 181.178 698.564 181.162C698.666 181.143 698.742 181.127 698.793 181.115L698.799 182C698.713 182.027 698.6 182.053 698.459 182.076C698.322 182.104 698.156 182.117 697.961 182.117C697.695 182.117 697.451 182.064 697.229 181.959C697.006 181.854 696.828 181.678 696.695 181.432C696.566 181.182 696.502 180.846 696.502 180.424V174.119ZM702.672 182.117C702.23 182.117 701.83 182.043 701.471 181.895C701.115 181.742 700.809 181.529 700.551 181.256C700.297 180.982 700.102 180.658 699.965 180.283C699.828 179.908 699.76 179.498 699.76 179.053V178.807C699.76 178.291 699.836 177.832 699.988 177.43C700.141 177.023 700.348 176.68 700.609 176.398C700.871 176.117 701.168 175.904 701.5 175.76C701.832 175.615 702.176 175.543 702.531 175.543C702.984 175.543 703.375 175.621 703.703 175.777C704.035 175.934 704.307 176.152 704.518 176.434C704.729 176.711 704.885 177.039 704.986 177.418C705.088 177.793 705.139 178.203 705.139 178.648V179.135H700.404V178.25H704.055V178.168C704.039 177.887 703.98 177.613 703.879 177.348C703.781 177.082 703.625 176.863 703.41 176.691C703.195 176.52 702.902 176.434 702.531 176.434C702.285 176.434 702.059 176.486 701.852 176.592C701.645 176.693 701.467 176.846 701.318 177.049C701.17 177.252 701.055 177.5 700.973 177.793C700.891 178.086 700.85 178.424 700.85 178.807V179.053C700.85 179.354 700.891 179.637 700.973 179.902C701.059 180.164 701.182 180.395 701.342 180.594C701.506 180.793 701.703 180.949 701.934 181.062C702.168 181.176 702.434 181.232 702.73 181.232C703.113 181.232 703.438 181.154 703.703 180.998C703.969 180.842 704.201 180.633 704.4 180.371L705.057 180.893C704.92 181.1 704.746 181.297 704.535 181.484C704.324 181.672 704.064 181.824 703.756 181.941C703.451 182.059 703.09 182.117 702.672 182.117Z" fill="#757575"/>
<path d="M754.98 182H753.199L753.211 181.08H754.98C755.59 181.08 756.098 180.953 756.504 180.699C756.91 180.441 757.215 180.082 757.418 179.621C757.625 179.156 757.729 178.613 757.729 177.992V177.471C757.729 176.982 757.67 176.549 757.553 176.17C757.436 175.787 757.264 175.465 757.037 175.203C756.811 174.938 756.533 174.736 756.205 174.6C755.881 174.463 755.508 174.395 755.086 174.395H753.164V173.469H755.086C755.645 173.469 756.154 173.562 756.615 173.75C757.076 173.934 757.473 174.201 757.805 174.553C758.141 174.9 758.398 175.322 758.578 175.818C758.758 176.311 758.848 176.865 758.848 177.482V177.992C758.848 178.609 758.758 179.166 758.578 179.662C758.398 180.154 758.139 180.574 757.799 180.922C757.463 181.27 757.057 181.537 756.58 181.725C756.107 181.908 755.574 182 754.98 182ZM753.803 173.469V182H752.672V173.469H753.803ZM763.576 174.225L760.752 182H759.598L762.85 173.469H763.594L763.576 174.225ZM765.943 182L763.113 174.225L763.096 173.469H763.84L767.104 182H765.943ZM765.797 178.842V179.768H761.004V178.842H765.797ZM770.637 173.469V182H769.523V173.469H770.637ZM773.379 173.469V174.395H766.787V173.469H773.379ZM780.064 181.08V182H775.547V181.08H780.064ZM775.775 173.469V182H774.645V173.469H775.775ZM779.467 177.137V178.057H775.547V177.137H779.467ZM780.006 173.469V174.395H775.547V173.469H780.006ZM784.734 173.469V182H783.621V173.469H784.734ZM787.477 173.469V174.395H780.885V173.469H787.477ZM789.955 173.469V182H788.824V173.469H789.955ZM792.369 173.469H793.465L796.26 180.424L799.049 173.469H800.15L796.682 182H795.826L792.369 173.469ZM792.012 173.469H792.979L793.137 178.672V182H792.012V173.469ZM799.535 173.469H800.502V182H799.377V178.672L799.535 173.469ZM807.908 181.08V182H803.391V181.08H807.908ZM803.619 173.469V182H802.488V173.469H803.619ZM807.311 177.137V178.057H803.391V177.137H807.311ZM807.85 173.469V174.395H803.391V173.469H807.85Z" fill="#757575"/>
</svg>
