<svg width="2323" height="700" viewBox="0 0 2323 700" fill="none" xmlns="http://www.w3.org/2000/svg">
<path d="M445 145.328C445 142.202 441.465 139.663 437.099 139.663H238.2C233.845 139.663 230.299 137.124 230.299 133.997C230.299 130.87 233.845 128.331 238.2 128.331H418.126C422.493 128.331 426.028 125.792 426.028 122.666C426.028 119.53 422.493 117 418.126 117H92.8607C88.4944 117 84.9593 119.53 84.9593 122.666C84.9593 125.792 88.4944 128.331 92.8607 128.331H199.812C204.179 128.331 207.714 130.87 207.714 133.997C207.714 137.124 204.179 139.663 199.812 139.663H115.745C111.379 139.663 107.832 142.202 107.832 145.328C107.832 148.455 111.379 150.994 115.745 150.994H140.391C144.746 150.994 148.292 153.533 148.292 156.66C148.292 159.795 144.746 162.325 140.391 162.325H9.90141C5.53513 162.325 2 164.864 2 168C2 171.127 5.53513 173.666 9.90141 173.666H234.355C238.71 173.666 242.256 176.196 242.256 179.331C242.256 182.458 238.71 184.997 234.355 184.997H22.3464C17.9801 184.997 14.445 187.536 14.445 190.663C14.445 193.79 17.9801 196.328 22.3464 196.328H269.329C273.696 196.328 277.231 198.867 277.231 201.994C277.231 205.13 273.696 207.66 269.329 207.66H137.554C133.199 207.66 129.653 210.199 129.653 213.325C129.653 216.461 133.199 219 137.554 219H427.424C431.79 219 435.325 216.461 435.325 213.325C435.325 210.199 431.79 207.66 427.424 207.66H307.662C303.295 207.66 299.76 205.13 299.76 201.994C299.76 198.867 303.295 196.328 307.662 196.328H308.171C312.538 196.328 316.073 193.79 316.073 190.663C316.073 187.536 312.538 184.997 308.171 184.997H274.649C270.282 184.997 266.747 182.458 266.747 179.331C266.747 176.196 270.282 173.666 274.649 173.666H316.638C321.004 173.666 324.551 171.127 324.551 168C324.551 164.864 321.004 162.325 316.638 162.325H180.785C176.418 162.325 172.883 159.795 172.883 156.66C172.883 153.533 176.418 150.994 180.785 150.994H437.099C441.465 150.994 445 148.455 445 145.328Z" stroke="#A8891B" stroke-opacity="0.05" stroke-width="3" stroke-miterlimit="10"/>
<path d="M1015 462.328C1015 459.202 1011.46 456.663 1007.1 456.663H808.2C803.845 456.663 800.299 454.124 800.299 450.997C800.299 447.87 803.845 445.331 808.2 445.331H988.126C992.493 445.331 996.028 442.792 996.028 439.666C996.028 436.53 992.493 434 988.126 434H662.861C658.494 434 654.959 436.53 654.959 439.666C654.959 442.792 658.494 445.331 662.861 445.331H769.812C774.179 445.331 777.714 447.87 777.714 450.997C777.714 454.124 774.179 456.663 769.812 456.663H685.745C681.379 456.663 677.832 459.202 677.832 462.328C677.832 465.455 681.379 467.994 685.745 467.994H710.391C714.746 467.994 718.292 470.533 718.292 473.66C718.292 476.795 714.746 479.325 710.391 479.325H579.901C575.535 479.325 572 481.864 572 485C572 488.127 575.535 490.666 579.901 490.666H804.355C808.71 490.666 812.256 493.196 812.256 496.331C812.256 499.458 808.71 501.997 804.355 501.997H592.346C587.98 501.997 584.445 504.536 584.445 507.663C584.445 510.79 587.98 513.328 592.346 513.328H839.329C843.696 513.328 847.231 515.867 847.231 518.994C847.231 522.13 843.696 524.66 839.329 524.66H707.554C703.199 524.66 699.653 527.199 699.653 530.325C699.653 533.461 703.199 536 707.554 536H997.424C1001.79 536 1005.33 533.461 1005.33 530.325C1005.33 527.199 1001.79 524.66 997.424 524.66H877.662C873.295 524.66 869.76 522.13 869.76 518.994C869.76 515.867 873.295 513.328 877.662 513.328H878.171C882.538 513.328 886.073 510.79 886.073 507.663C886.073 504.536 882.538 501.997 878.171 501.997H844.649C840.282 501.997 836.747 499.458 836.747 496.331C836.747 493.196 840.282 490.666 844.649 490.666H886.638C891.004 490.666 894.551 488.127 894.551 485C894.551 481.864 891.004 479.325 886.638 479.325H750.785C746.418 479.325 742.883 476.795 742.883 473.66C742.883 470.533 746.418 467.994 750.785 467.994H1007.1C1011.46 467.994 1015 465.455 1015 462.328Z" stroke="#A8891B" stroke-opacity="0.05" stroke-width="3" stroke-miterlimit="10"/>
<path d="M506.175 329H363.257C356.2 329 350.125 333.734 350.002 339.789C349.879 345.843 355.668 351 362.848 351H506.175C513.252 351 519 346.072 519 340C518.98 333.902 513.252 329 506.175 329Z" fill="#A8891B" fill-opacity="0.1"/>
<path d="M2053.44 282.001H1802.53C1798.02 281.977 1793.61 282.686 1789.94 284.026C1786.27 285.366 1783.53 287.267 1782.12 289.454C1781.03 291.112 1780.73 292.879 1781.24 294.608C1781.75 296.338 1783.06 297.981 1785.06 299.402C1787.06 300.822 1789.69 301.98 1792.74 302.78C1795.79 303.579 1799.17 303.997 1802.6 304H2053.44C2059.16 304 2064.64 302.841 2068.69 300.778C2072.73 298.715 2075 295.918 2075 293C2075 290.083 2072.73 287.285 2068.69 285.222C2064.64 283.159 2059.16 282.001 2053.44 282.001Z" fill="#A8891B" fill-opacity="0.15"/>
<path d="M368.201 463.001H159.387C154.397 462.964 149.579 464.071 145.959 466.086C142.339 468.101 140.202 470.864 140.003 473.789C139.957 475.253 140.41 476.708 141.334 478.068C142.259 479.428 143.637 480.667 145.387 481.711C147.138 482.755 149.226 483.583 151.53 484.148C153.833 484.713 156.306 485.003 158.802 485H368.246C373.22 485 377.99 483.841 381.507 481.778C385.024 479.716 387 476.918 387 474V474C387 472.554 386.513 471.121 385.568 469.785C384.623 468.449 383.237 467.235 381.491 466.213C379.745 465.192 377.672 464.382 375.392 463.831C373.111 463.279 370.668 462.997 368.201 463.001V463.001Z" fill="#A8891B" fill-opacity="0.25"/>
<path d="M692.201 567.001H483.387C478.397 566.964 473.579 568.071 469.959 570.086C466.339 572.101 464.202 574.864 464.003 577.789C463.957 579.253 464.41 580.708 465.334 582.068C466.259 583.428 467.637 584.667 469.387 585.711C471.138 586.755 473.226 587.583 475.53 588.148C477.833 588.713 480.306 589.003 482.802 589H692.246C697.22 589 701.99 587.841 705.507 585.778C709.024 583.716 711 580.918 711 578V578C711 576.554 710.513 575.121 709.568 573.785C708.623 572.449 707.237 571.235 705.491 570.213C703.745 569.192 701.672 568.382 699.392 567.831C697.111 567.279 694.668 566.997 692.201 567.001V567.001Z" fill="#A8891B" fill-opacity="0.25"/>
<path d="M1287.15 373.001H1067.82C1063.88 372.977 1060.02 373.686 1056.81 375.026C1053.61 376.366 1051.22 378.267 1049.98 380.454C1049.03 382.112 1048.76 383.879 1049.21 385.608C1049.66 387.338 1050.8 388.981 1052.55 390.402C1054.3 391.822 1056.6 392.98 1059.27 393.78C1061.93 394.579 1064.88 394.997 1067.88 395H1287.15C1292.15 395 1296.94 393.841 1300.48 391.778C1304.01 389.715 1306 386.918 1306 384C1306 381.083 1304.01 378.285 1300.48 376.222C1296.94 374.159 1292.15 373.001 1287.15 373.001Z" fill="#A8891B" fill-opacity="0.1"/>
<path d="M940.152 80.0006H720.821C716.877 79.9769 713.022 80.6864 709.815 82.0264C706.608 83.3665 704.215 85.2674 702.983 87.454C702.029 89.1122 701.765 90.8789 702.211 92.6085C702.657 94.338 703.802 95.9809 705.55 97.4016C707.298 98.8223 709.6 99.9801 712.265 100.78C714.931 101.579 717.884 101.997 720.881 102H940.152C945.151 102 949.945 100.841 953.48 98.7783C957.014 96.7154 959 93.9176 959 91.0003C959 88.083 957.014 85.2852 953.48 83.2223C949.945 81.1595 945.151 80.0006 940.152 80.0006Z" fill="#A8891B" fill-opacity="0.1"/>
<path d="M2303.99 607.884H2023.99C2020.52 607.961 2017.1 607.184 2014.21 605.659C2011.32 604.134 2009.11 601.938 2007.88 599.377C2004.2 590.722 2012.85 582.774 2024.03 582.774H2093.95C2097.42 582.848 2100.84 582.069 2103.72 580.544C2106.6 579.02 2108.81 576.826 2110.04 574.267C2113.72 565.612 2105.07 557.665 2093.91 557.665H1828.54C1825.06 557.738 1821.65 556.959 1818.77 555.435C1815.88 553.91 1813.67 551.716 1812.45 549.158C1808.77 540.502 1817.42 532.555 1828.58 532.555H2298.37C2301.84 532.629 2305.25 531.849 2308.14 530.325C2311.02 528.8 2313.23 526.606 2314.46 524.048C2318.14 515.393 2309.48 507.445 2298.33 507.445H2036.99C2033.52 507.519 2030.1 506.74 2027.22 505.215C2024.34 503.69 2022.13 501.497 2020.9 498.938C2017.22 490.283 2025.87 482.335 2037.03 482.335H2240.43C2244.79 482.442 2249.04 481.18 2252.23 478.827C2255.41 476.473 2257.29 473.22 2257.43 469.781V469.781C2257.29 466.341 2255.41 463.088 2252.23 460.735C2249.04 458.381 2244.79 457.119 2240.43 457.226H1906.75C1903.28 457.3 1899.86 456.52 1896.98 454.996C1894.09 453.471 1891.89 451.277 1890.66 448.719C1886.98 440.064 1895.63 432.116 1906.79 432.116H2004.68C2009.05 432.222 2013.3 430.961 2016.48 428.607C2019.67 426.254 2021.55 423.001 2021.69 419.561V419.561C2021.55 416.122 2019.67 412.869 2016.48 410.515C2013.3 408.162 2009.05 406.9 2004.68 407.006H1763.99C1760.52 406.932 1757.1 407.712 1754.22 409.236C1751.34 410.761 1749.13 412.955 1747.9 415.513C1744.22 424.168 1752.87 432.116 1764.05 432.116H1814.98C1818.45 432.042 1821.86 432.821 1824.75 434.346C1827.63 435.871 1829.84 438.065 1831.07 440.623C1834.74 449.278 1826.09 457.226 1814.93 457.226H1545.95C1542.48 457.152 1539.06 457.931 1536.18 459.456C1533.29 460.98 1531.09 463.174 1529.86 465.733C1526.18 474.388 1534.83 482.335 1545.99 482.335H1944.19C1947.66 482.262 1951.08 483.041 1953.96 484.566C1956.85 486.09 1959.05 488.284 1960.28 490.842C1963.96 499.498 1955.31 507.445 1944.13 507.445H1549.33C1545.86 507.371 1542.45 508.151 1539.56 509.675C1536.68 511.2 1534.47 513.394 1533.24 515.952C1529.57 524.607 1538.22 532.555 1549.37 532.555H1716.96C1720.43 532.481 1723.84 533.26 1726.73 534.785C1729.61 536.31 1731.82 538.503 1733.05 541.062C1736.72 549.717 1728.07 557.665 1716.91 557.665H1615.74C1611.37 557.558 1607.13 558.82 1603.94 561.173C1600.75 563.527 1598.88 566.78 1598.73 570.219V570.219C1598.88 573.659 1600.75 576.912 1603.94 579.265C1607.13 581.619 1611.37 582.881 1615.74 582.774H1935.56C1939.03 582.699 1942.44 583.476 1945.33 584.998C1948.21 586.519 1950.42 588.71 1951.65 591.265C1955.33 599.92 1946.68 607.884 1935.5 607.884H1835.2C1830.84 607.778 1826.6 609.04 1823.41 611.394C1820.22 613.748 1818.36 617.001 1818.21 620.439C1818.36 623.877 1820.22 627.13 1823.41 629.484C1826.6 631.838 1830.84 633.1 1835.2 632.994H2304.05C2307.52 633.068 2310.94 632.288 2313.82 630.764C2316.71 629.239 2318.91 627.045 2320.14 624.487C2323.82 615.832 2315.17 607.884 2303.99 607.884Z" stroke="#A8891B" stroke-opacity="0.15" stroke-width="3" stroke-miterlimit="10"/>
<path d="M1598.58 126H1663.44C1664.6 126.011 1665.74 125.623 1666.69 124.893C1667.63 124.163 1668.34 123.127 1668.7 121.937C1668.99 121.034 1669.07 120.072 1668.94 119.13C1668.81 118.187 1668.47 117.292 1667.96 116.516C1667.45 115.741 1666.77 115.109 1665.98 114.671C1665.19 114.234 1664.32 114.004 1663.44 114H1598.58C1597.1 114 1595.68 114.632 1594.63 115.757C1593.59 116.883 1593 118.409 1593 120V120C1593 121.591 1593.59 123.117 1594.63 124.242C1595.68 125.368 1597.1 126 1598.58 126Z" fill="#A8891B" fill-opacity="0.25"/>
<path d="M2169.25 33.9996H2260.53C2262.71 34.0166 2264.81 33.4624 2266.4 32.4548C2267.98 31.4473 2268.91 30.0657 2269 28.6038C2269.02 27.8702 2268.82 27.1415 2268.41 26.4605C2268 25.7794 2267.4 25.1597 2266.63 24.6377C2265.86 24.1157 2264.95 23.702 2263.94 23.4207C2262.93 23.1395 2261.84 22.9965 2260.75 23.0001H2169.2C2167.03 23.0024 2164.94 23.5825 2163.41 24.6134C2161.87 25.6444 2161 27.0419 2161 28.4998C2161 29.225 2161.21 29.943 2161.63 30.6126C2162.04 31.2821 2162.65 31.8899 2163.42 32.4011C2164.19 32.9122 2165.1 33.3166 2166.1 33.591C2167.1 33.8653 2168.17 34.0042 2169.25 33.9996V33.9996Z" fill="#A8891B" fill-opacity="0.15"/>
<path d="M1450.25 316H1541.53C1543.71 316.017 1545.81 315.462 1547.4 314.455C1548.98 313.447 1549.91 312.066 1550 310.604C1550.02 309.87 1549.82 309.142 1549.41 308.46C1549 307.779 1548.4 307.16 1547.63 306.638C1546.86 306.116 1545.95 305.702 1544.94 305.421C1543.93 305.14 1542.84 304.996 1541.75 305H1450.2C1448.03 305.002 1445.94 305.583 1444.41 306.613C1442.87 307.644 1442 309.042 1442 310.5C1442 311.225 1442.21 311.943 1442.63 312.613C1443.04 313.282 1443.65 313.89 1444.42 314.401C1445.19 314.912 1446.1 315.317 1447.1 315.591C1448.1 315.865 1449.17 316.004 1450.25 316V316Z" fill="#A8891B" fill-opacity="0.15"/>
<path d="M2082.26 10.9999H2166.76C2168.27 11.0073 2169.76 10.6509 2170.99 9.98185C2172.22 9.31282 2173.14 8.36546 2173.62 7.27552C2173.99 6.44835 2174.09 5.56702 2173.92 4.70388C2173.75 3.84075 2173.31 3.02044 2172.64 2.31032C2171.97 1.60021 2171.09 1.02053 2170.07 0.618915C2169.04 0.217296 2167.91 0.0051843 2166.76 0L2082.26 0C2080.34 0 2078.49 0.579457 2077.13 1.6109C2075.77 2.64234 2075 4.04127 2075 5.49994V5.49994C2075 6.95792 2075.77 8.35552 2077.13 9.38646C2078.49 10.4174 2080.34 10.9976 2082.26 10.9999V10.9999Z" fill="#A8891B" fill-opacity="0.15"/>
<path d="M1363.26 293H1447.76C1449.27 293.007 1450.76 292.651 1451.99 291.982C1453.22 291.313 1454.14 290.365 1454.62 289.276C1454.99 288.448 1455.09 287.567 1454.92 286.704C1454.75 285.841 1454.31 285.02 1453.64 284.31C1452.97 283.6 1452.09 283.021 1451.07 282.619C1450.04 282.217 1448.91 282.005 1447.76 282H1363.26C1361.34 282 1359.49 282.579 1358.13 283.611C1356.77 284.642 1356 286.041 1356 287.5V287.5C1356 288.958 1356.77 290.356 1358.13 291.386C1359.49 292.417 1361.34 292.998 1363.26 293V293Z" fill="#A8891B" fill-opacity="0.15"/>
</svg>
