<svg width="322" height="500" viewBox="0 0 322 500" fill="none" xmlns="http://www.w3.org/2000/svg">
<path d="M155.586 104.155C155.586 101.922 154.36 100.108 152.846 100.108H83.8892C82.3793 100.108 81.1498 98.2948 81.1498 96.0615C81.1498 93.8281 82.3793 92.0146 83.8892 92.0146H146.269C147.782 92.0146 149.008 90.2012 149.008 87.9678C149.008 85.7281 147.782 83.921 146.269 83.921H33.5009C31.9871 83.921 30.7615 85.7281 30.7615 87.9678C30.7615 90.2012 31.9871 92.0146 33.5009 92.0146H70.5804C72.0942 92.0146 73.3198 93.8281 73.3198 96.0615C73.3198 98.2948 72.0942 100.108 70.5804 100.108H41.4347C39.9209 100.108 38.6915 101.922 38.6915 104.155C38.6915 106.388 39.9209 108.202 41.4347 108.202H49.9794C51.4893 108.202 52.7188 110.015 52.7188 112.249C52.7188 114.488 51.4893 116.296 49.9794 116.296H4.73937C3.22561 116.296 2 118.109 2 120.349C2 122.582 3.22561 124.396 4.73937 124.396H82.556C84.066 124.396 85.2954 126.203 85.2954 128.442C85.2954 130.676 84.066 132.489 82.556 132.489H9.05398C7.54022 132.489 6.31461 134.303 6.31461 136.536C6.31461 138.769 7.54022 140.583 9.05398 140.583H94.6815C96.1953 140.583 97.4209 142.396 97.4209 144.63C97.4209 146.869 96.1953 148.676 94.6815 148.676H48.9958C47.4859 148.676 46.2564 150.49 46.2564 152.723C46.2564 154.963 47.4859 156.776 48.9958 156.776H149.492C151.006 156.776 152.231 154.963 152.231 152.723C152.231 150.49 151.006 148.676 149.492 148.676H107.971C106.457 148.676 105.232 146.869 105.232 144.63C105.232 142.396 106.457 140.583 107.971 140.583H108.148C109.662 140.583 110.887 138.769 110.887 136.536C110.887 134.303 109.662 132.489 108.148 132.489H96.5257C95.0119 132.489 93.7863 130.676 93.7863 128.442C93.7863 126.203 95.0119 124.396 96.5257 124.396H111.083C112.597 124.396 113.826 122.582 113.826 120.349C113.826 118.109 112.597 116.296 111.083 116.296H63.9836C62.4699 116.296 61.2442 114.488 61.2442 112.249C61.2442 110.015 62.4699 108.202 63.9836 108.202H152.846C154.36 108.202 155.586 106.388 155.586 104.155Z" stroke="#A8891B" stroke-opacity="0.01" stroke-width="3" stroke-miterlimit="10"/>
<path d="M53.9598 235.428H27.1155C25.79 235.428 24.6489 238.851 24.6258 243.229C24.6028 247.607 25.6901 251.335 27.0386 251.335H53.9598C55.2892 251.335 56.3688 247.772 56.3688 243.382C56.3649 238.972 55.2892 235.428 53.9598 235.428Z" fill="#A8891B" fill-opacity="0.1"/>
<path d="M273.625 201.526H217.731C216.726 201.509 215.743 202.022 214.926 202.991C214.109 203.96 213.499 205.335 213.185 206.916C212.942 208.115 212.875 209.392 212.989 210.643C213.103 211.893 213.394 213.081 213.84 214.109C214.285 215.136 214.871 215.973 215.551 216.551C216.23 217.129 216.982 217.432 217.746 217.434H273.625C274.898 217.434 276.12 216.596 277.02 215.104C277.921 213.613 278.427 211.589 278.427 209.48C278.427 207.371 277.921 205.348 277.02 203.856C276.12 202.364 274.898 201.526 273.625 201.526Z" fill="#A8891B" fill-opacity="0.15"/>
<path d="M78.8677 330.375H25.3942C24.1163 330.348 22.8825 331.149 21.9555 332.605C21.0284 334.062 20.4812 336.061 20.4303 338.176C20.4185 339.234 20.5344 340.286 20.7712 341.27C21.0079 342.253 21.3608 343.149 21.8091 343.904C22.2574 344.659 22.7921 345.258 23.382 345.666C23.9719 346.075 24.605 346.284 25.2443 346.282H78.8792C80.1529 346.282 81.3745 345.444 82.2751 343.953C83.1758 342.461 83.6817 340.438 83.6817 338.328V338.328C83.6818 337.282 83.5571 336.247 83.3151 335.28C83.073 334.314 82.7182 333.436 82.271 332.698C81.8239 331.959 81.2931 331.373 80.7091 330.975C80.1251 330.576 79.4993 330.372 78.8677 330.375V330.375Z" fill="#A8891B" fill-opacity="0.25"/>
<path d="M171.04 266.254H115.153C114.148 266.236 113.166 266.75 112.349 267.718C111.532 268.687 110.922 270.062 110.608 271.643C110.365 272.842 110.298 274.119 110.412 275.37C110.525 276.621 110.817 277.809 111.262 278.836C111.708 279.863 112.294 280.7 112.973 281.278C113.653 281.857 114.405 282.159 115.169 282.161H171.04C172.313 282.161 173.535 281.323 174.436 279.831C175.336 278.34 175.842 276.317 175.842 274.207C175.842 272.098 175.336 270.075 174.436 268.583C173.535 267.092 172.313 266.254 171.04 266.254Z" fill="#A8891B" fill-opacity="0.1"/>
<path d="M302.171 407.527H250.688C250.049 407.557 249.42 407.256 248.889 406.667C248.358 406.077 247.951 405.228 247.725 404.237C247.049 400.89 248.64 397.817 250.695 397.817H263.551C264.189 397.846 264.817 397.544 265.347 396.955C265.877 396.365 266.283 395.517 266.509 394.528C267.185 391.181 265.595 388.107 263.543 388.107H214.749C214.111 388.136 213.483 387.835 212.953 387.245C212.423 386.655 212.016 385.807 211.791 384.818C211.115 381.471 212.705 378.397 214.757 378.397H301.137C301.776 378.426 302.404 378.125 302.934 377.535C303.464 376.946 303.87 376.097 304.096 375.108C304.772 371.761 303.181 368.688 301.13 368.688H253.077C252.439 368.716 251.811 368.415 251.281 367.825C250.751 367.236 250.345 366.387 250.119 365.398C249.443 362.051 251.033 358.978 253.085 358.978H290.483C291.287 359.019 292.067 358.531 292.653 357.621C293.239 356.711 293.584 355.453 293.611 354.123V354.123C293.584 352.793 293.239 351.535 292.653 350.625C292.067 349.715 291.287 349.227 290.483 349.268H229.13C228.491 349.297 227.864 348.995 227.333 348.406C226.803 347.816 226.397 346.968 226.171 345.978C225.495 342.632 227.086 339.558 229.138 339.558H247.137C247.941 339.599 248.721 339.111 249.307 338.201C249.893 337.291 250.238 336.033 250.265 334.703V334.703C250.238 333.373 249.893 332.115 249.307 331.205C248.721 330.295 247.941 329.807 247.137 329.848H202.881C202.243 329.82 201.615 330.121 201.085 330.711C200.554 331.3 200.148 332.149 199.923 333.138C199.246 336.485 200.837 339.558 202.893 339.558H212.256C212.894 339.53 213.522 339.831 214.052 340.421C214.582 341.01 214.988 341.858 215.214 342.848C215.89 346.195 214.3 349.268 212.248 349.268H162.789C162.151 349.239 161.523 349.541 160.993 350.13C160.463 350.72 160.057 351.568 159.831 352.558C159.155 355.905 160.745 358.978 162.797 358.978H236.015C236.653 358.949 237.281 359.251 237.811 359.84C238.341 360.43 238.747 361.278 238.973 362.267C239.649 365.614 238.059 368.688 236.003 368.688H163.412C162.773 368.659 162.146 368.961 161.615 369.55C161.085 370.14 160.679 370.988 160.453 371.977C159.777 375.324 161.368 378.397 163.419 378.397H194.233C194.871 378.369 195.499 378.67 196.029 379.26C196.559 379.849 196.965 380.698 197.191 381.687C197.867 385.034 196.277 388.107 194.225 388.107H175.622C174.819 388.066 174.038 388.554 173.452 389.464C172.866 390.374 172.521 391.632 172.494 392.962V392.962C172.521 394.292 172.866 395.55 173.452 396.46C174.038 397.37 174.819 397.858 175.622 397.817H234.428C235.066 397.788 235.693 398.089 236.224 398.677C236.754 399.265 237.16 400.112 237.386 401.1C238.063 404.447 236.472 407.527 234.416 407.527H215.975C215.172 407.486 214.392 407.974 213.806 408.884C213.221 409.795 212.877 411.052 212.851 412.382C212.877 413.711 213.221 414.969 213.806 415.88C214.392 416.79 215.172 417.278 215.975 417.237H302.182C302.821 417.265 303.449 416.964 303.979 416.374C304.509 415.785 304.915 414.937 305.141 413.947C305.817 410.6 304.226 407.527 302.171 407.527Z" stroke="#A8891B" stroke-opacity="0.7" stroke-width="3" stroke-miterlimit="10"/>
<path d="M193.406 89.6798H221.788C222.297 89.6871 222.795 89.4261 223.21 88.9343C223.624 88.4426 223.933 87.7455 224.093 86.9437C224.217 86.336 224.252 85.6881 224.196 85.0535C224.139 84.4188 223.992 83.8156 223.767 83.2935C223.542 82.7714 223.245 82.3455 222.901 82.0509C222.557 81.7562 222.175 81.6013 221.788 81.5989H193.406C192.759 81.5989 192.139 82.0246 191.681 82.7823C191.224 83.54 190.967 84.5677 190.967 85.6393V85.6393C190.967 86.7109 191.224 87.7386 191.681 88.4963C192.139 89.2541 192.759 89.6798 193.406 89.6798Z" fill="#A8891B" fill-opacity="0.25"/>
<path d="M292.32 24.2372H319.479C320.128 24.2497 320.755 23.8425 321.225 23.1023C321.696 22.3621 321.974 21.3472 322 20.2731C322.005 19.7342 321.946 19.1989 321.825 18.6985C321.704 18.1982 321.524 17.7429 321.295 17.3594C321.066 16.9759 320.794 16.6719 320.493 16.4653C320.192 16.2587 319.87 16.1537 319.545 16.1563H292.304C291.658 16.158 291.038 16.5842 290.58 17.3416C290.123 18.0989 289.866 19.1257 289.865 20.1968C289.865 20.7295 289.928 21.257 290.052 21.7489C290.175 22.2408 290.357 22.6873 290.585 23.0628C290.813 23.4384 291.084 23.7354 291.381 23.937C291.679 24.1385 291.998 24.2406 292.32 24.2372V24.2372Z" fill="#A8891B" fill-opacity="0.15"/>
<path d="M260.838 8.08273H289.223C289.733 8.08813 290.23 7.82634 290.644 7.33484C291.058 6.84335 291.368 6.14739 291.528 5.34667C291.652 4.73901 291.686 4.09155 291.629 3.45747C291.572 2.82338 291.425 2.22075 291.2 1.69907C290.975 1.1774 290.679 0.75155 290.335 0.456507C289.991 0.161464 289.61 0.00563962 289.223 0.00183105L260.838 0.00183105C260.191 0.00183105 259.571 0.42752 259.113 1.18525C258.655 1.94298 258.398 2.97069 258.398 4.04228V4.04228C258.399 5.11335 258.657 6.14008 259.114 6.89745C259.571 7.65481 260.191 8.08104 260.838 8.08273V8.08273Z" fill="#A8891B" fill-opacity="0.15"/>
</svg>
