<svg 
  width="100%"
  height="100%"
  viewBox="0 0 1062 658"
  fill="none"
  xmlns="http://www.w3.org/2000/svg">
  <path
      stroke="#A8891B"
      stroke-opacity="0.05"
      stroke-width="3"
      stroke-miterlimit="10"
      d="M510.752 136.87C510.752 133.935 506.692 131.553 501.678 131.553H273.258C268.256 131.553 264.184 129.17 264.184 126.235C264.184 123.3 268.256 120.917 273.258 120.917H479.89C484.904 120.917 488.964 118.535 488.964 115.6C488.964 112.657 484.904 110.282 479.89 110.282H106.347C101.332 110.282 97.2725 112.657 97.2725 115.6C97.2725 118.535 101.332 120.917 106.347 120.917H229.173C234.187 120.917 238.247 123.3 238.247 126.235C238.247 129.17 234.187 131.553 229.173 131.553H132.627C127.613 131.553 123.541 133.935 123.541 136.87C123.541 139.805 127.613 142.188 132.627 142.188H160.932C165.933 142.188 170.006 144.57 170.006 147.505C170.006 150.448 165.933 152.823 160.932 152.823H11.0742C6.05984 152.823 2 155.205 2 158.149C2 161.083 6.05984 163.466 11.0742 163.466H268.842C273.844 163.466 277.916 165.841 277.916 168.784C277.916 171.718 273.844 174.101 268.842 174.101H25.3663C20.352 174.101 16.2921 176.484 16.2921 179.419C16.2921 182.353 20.352 184.736 25.3663 184.736H309.008C314.022 184.736 318.082 187.119 318.082 190.054C318.082 192.997 314.022 195.371 309.008 195.371H157.674C152.672 195.371 148.6 197.754 148.6 200.689C148.6 203.632 152.672 206.015 157.674 206.015H490.567C495.582 206.015 499.642 203.632 499.642 200.689C499.642 197.754 495.582 195.371 490.567 195.371H353.029C348.015 195.371 343.955 192.997 343.955 190.054C343.955 187.119 348.015 184.736 353.029 184.736H353.615C358.629 184.736 362.689 182.353 362.689 179.419C362.689 176.484 358.629 174.101 353.615 174.101H315.116C310.102 174.101 306.042 171.718 306.042 168.784C306.042 165.841 310.102 163.466 315.116 163.466H363.338C368.352 163.466 372.425 161.083 372.425 158.149C372.425 155.205 368.352 152.823 363.338 152.823H207.321C202.306 152.823 198.247 150.448 198.247 147.505C198.247 144.57 202.306 142.188 207.321 142.188H501.678C506.692 142.188 510.752 139.805 510.752 136.87Z"
    />
  <path
      fill="#A8891B"
      fill-opacity="0.1"
      d="M174.117 309.363H85.1949C80.8042 309.363 77.0243 313.861 76.948 319.614C76.8716 325.366 80.4733 330.265 84.9404 330.265H174.117C178.52 330.265 182.096 325.583 182.096 319.814C182.084 314.02 178.52 309.363 174.117 309.363Z"
    />
  <path
      fill="#A8891B"
      fill-opacity="0.15"
      d="M901.756 264.816H716.607C713.278 264.794 710.025 265.468 707.318 266.741C704.611 268.014 702.592 269.82 701.552 271.898C700.747 273.473 700.523 275.152 700.9 276.795C701.277 278.439 702.243 279.999 703.718 281.349C705.194 282.699 707.136 283.799 709.386 284.559C711.636 285.319 714.129 285.716 716.658 285.718H901.756C905.975 285.718 910.022 284.617 913.005 282.657C915.989 280.697 917.665 278.039 917.665 275.267C917.665 272.496 915.989 269.837 913.005 267.877C910.022 265.917 905.975 264.816 901.756 264.816Z"
    />
  <path
    d="M256.624 434.123H79.493C75.2599 434.089 71.1732 435.14 68.1023 437.055C65.0314 438.969 63.2188 441.595 63.0501 444.374C63.0111 445.765 63.395 447.147 64.1793 448.44C64.9635 449.732 66.1324 450.909 67.6174 451.9C69.1024 452.892 70.8737 453.68 72.8277 454.216C74.7816 454.753 76.8789 455.028 78.9967 455.026H256.662C260.881 455.026 264.928 453.925 267.911 451.965C270.895 450.005 272.571 447.346 272.571 444.575C272.571 443.2 272.158 441.839 271.356 440.569C270.554 439.3 269.379 438.146 267.898 437.176C266.416 436.205 264.658 435.436 262.724 434.912C260.789 434.388 258.716 434.12 256.624 434.123Z"
    fill="#A8891B"
    fill-opacity="0.25"/>
  <path
    d="M561.945 349.868H376.821C373.492 349.845 370.239 350.52 367.532 351.793C364.825 353.066 362.806 354.872 361.765 356.95C360.961 358.525 360.737 360.204 361.114 361.847C361.491 363.49 362.457 365.051 363.932 366.401C365.408 367.751 367.35 368.851 369.6 369.611C371.85 370.37 374.343 370.768 376.872 370.77H561.945C566.164 370.77 570.21 369.669 573.194 367.709C576.177 365.749 577.853 363.091 577.853 360.319C577.853 357.547 576.177 354.889 573.194 352.929C570.21 350.969 566.164 349.868 561.945 349.868Z"
    fill="#A8891B"
    fill-opacity="0.1"/>
  <path
    stroke="#A8891B"
    stroke-opacity="0.15"
    stroke-width="3"
    stroke-miterlimit="10"
    d="M996.316 535.502H825.778C823.661 535.541 821.578 535.146 819.82 534.371C818.061 533.596 816.714 532.48 815.966 531.179C813.726 526.781 818.994 522.743 825.803 522.743H868.387C870.502 522.78 872.581 522.384 874.338 521.61C876.094 520.835 877.439 519.72 878.187 518.42C880.427 514.022 875.158 509.984 868.362 509.984H706.732C704.617 510.022 702.537 509.626 700.781 508.851C699.025 508.076 697.68 506.961 696.932 505.661C694.692 501.264 699.961 497.225 706.757 497.225H992.893C995.008 497.263 997.087 496.867 998.843 496.092C1000.6 495.317 1001.94 494.203 1002.69 492.903C1004.93 488.505 999.664 484.467 992.867 484.467H833.694C831.579 484.504 829.499 484.108 827.743 483.333C825.987 482.559 824.642 481.444 823.894 480.144C821.654 475.746 826.923 471.708 833.719 471.708H957.602C960.262 471.762 962.847 471.121 964.789 469.925C966.731 468.729 967.872 467.076 967.961 465.328V465.328C967.872 463.581 966.731 461.928 964.789 460.732C962.847 459.536 960.262 458.895 957.602 458.949H754.368C752.253 458.987 750.174 458.591 748.417 457.816C746.661 457.041 745.316 455.927 744.568 454.626C742.328 450.229 747.597 446.19 754.393 446.19H814.018C816.679 446.244 819.263 445.603 821.205 444.407C823.147 443.212 824.288 441.559 824.378 439.811V439.811C824.288 438.063 823.147 436.41 821.205 435.214C819.263 434.019 816.679 433.377 814.018 433.432H667.419C665.304 433.394 663.224 433.79 661.468 434.565C659.712 435.339 658.367 436.454 657.619 437.754C655.379 442.152 660.648 446.19 667.457 446.19H698.472C700.587 446.153 702.667 446.549 704.423 447.323C706.179 448.098 707.524 449.213 708.272 450.513C710.512 454.911 705.243 458.949 698.447 458.949H534.615C532.501 458.912 530.421 459.308 528.664 460.082C526.908 460.857 525.563 461.972 524.815 463.272C522.576 467.669 527.844 471.708 534.641 471.708H777.174C779.289 471.67 781.369 472.066 783.125 472.841C784.881 473.616 786.226 474.73 786.974 476.03C789.214 480.428 783.945 484.467 777.136 484.467H536.677C534.562 484.429 532.482 484.825 530.726 485.6C528.97 486.374 527.625 487.489 526.877 488.789C524.637 493.187 529.906 497.225 536.702 497.225H638.771C640.885 497.188 642.965 497.584 644.721 498.358C646.478 499.133 647.823 500.248 648.57 501.548C650.81 505.946 645.542 509.984 638.745 509.984H577.122C574.462 509.93 571.877 510.571 569.935 511.767C567.993 512.963 566.853 514.616 566.763 516.363V516.363C566.853 518.111 567.993 519.764 569.935 520.96C571.877 522.156 574.462 522.797 577.122 522.743H771.918C774.031 522.705 776.11 523.099 777.866 523.872C779.622 524.646 780.968 525.759 781.718 527.057C783.958 531.455 778.689 535.502 771.88 535.502H710.792C708.132 535.447 705.549 536.089 703.609 537.285C701.669 538.481 700.531 540.134 700.445 541.881C700.531 543.628 701.669 545.281 703.609 546.477C705.549 547.673 708.132 548.314 710.792 548.26H996.355C998.469 548.298 1000.55 547.902 1002.31 547.127C1004.06 546.352 1005.41 545.238 1006.15 543.938C1008.39 539.54 1003.13 535.502 996.316 535.502Z" 
    />
  <path
    fill="#A8891B"
    fill-opacity="0.25"
    d="M636.034 117.849H730.047C731.735 117.859 733.385 117.516 734.757 116.87C736.13 116.224 737.154 115.308 737.683 114.254C738.095 113.456 738.211 112.604 738.024 111.77C737.836 110.936 737.349 110.144 736.603 109.458C735.857 108.772 734.874 108.212 733.734 107.825C732.594 107.438 731.33 107.234 730.047 107.231H636.034C633.891 107.231 631.835 107.79 630.32 108.786C628.804 109.782 627.953 111.132 627.953 112.54C627.953 113.948 628.804 115.299 630.32 116.294C631.835 117.29 633.891 117.849 636.034 117.849Z" 
    />
  <path
      fill="#A8891B"
      fill-opacity="0.15"
      d="M963.685 31.8578H1053.65C1055.8 31.8742 1057.87 31.3392 1059.43 30.3666C1060.99 29.3939 1061.91 28.0603 1062 26.649C1062.02 25.9409 1061.82 25.2374 1061.42 24.5799C1061.02 23.9225 1060.42 23.3242 1059.66 22.8203C1058.91 22.3164 1058 21.917 1057.01 21.6456C1056.01 21.3741 1054.94 21.236 1053.87 21.2395H963.634C961.491 21.2417 959.438 21.8018 957.923 22.7969C956.408 23.7921 955.556 25.1412 955.552 26.5486C955.552 27.2487 955.763 27.9418 956.172 28.5881C956.582 29.2345 957.181 29.8212 957.937 30.3147C958.693 30.8081 959.59 31.1985 960.576 31.4633C961.563 31.7282 962.619 31.8622 963.685 31.8578Z"
    />
  <path
    fill="#A8891B"
    fill-opacity="0.15"
    d="M859.402 10.6308H953.427C955.115 10.6379 956.762 10.2939 958.134 9.64811C959.506 9.00229 960.531 8.08779 961.063 7.03565C961.472 6.23718 961.586 5.38642 961.397 4.55322C961.208 3.72003 960.721 2.92818 959.976 2.24269C959.231 1.55721 958.248 0.997645 957.11 0.609958C955.972 0.22227 954.709 0.0175167 953.427 0.0125122L859.402 0.0125122C857.259 0.0125122 855.203 0.571868 853.687 1.56753C852.172 2.56319 851.32 3.91359 851.32 5.32167C851.324 6.72907 852.176 8.07819 853.691 9.07337C855.206 10.0686 857.26 10.6286 859.402 10.6308Z" 
    />
</svg>
