<svg width="236" height="298" viewBox="0 0 236 298" fill="none" xmlns="http://www.w3.org/2000/svg">
<path d="M237.53 -114.078C335.147 -114.078 414.268 -35.5056 414.268 61.4032C414.268 158.312 335.147 236.884 237.53 236.884C139.914 236.884 60.792 158.312 60.792 61.4032C60.792 -35.5056 139.914 -114.078 237.53 -114.078Z" stroke="#A8891B" stroke-opacity="0.3" stroke-width="2"/>
<path d="M237.016 -141.701C350.281 -141.701 442.089 -50.5321 442.089 61.915C442.089 174.362 350.281 265.531 237.016 265.531C123.75 265.531 31.9426 174.362 31.9426 61.915C31.9426 -50.5321 123.75 -141.701 237.016 -141.701Z" stroke="#A8891B" stroke-opacity="0.3" stroke-width="2"/>
<path d="M237.016 -172.393C367.353 -172.393 473 -67.4831 473 61.915C473 191.313 367.353 296.223 237.016 296.223C106.679 296.223 1.03149 191.313 1.03149 61.915C1.03149 -67.4831 106.679 -172.393 237.016 -172.393Z" stroke="#A8891B" stroke-opacity="0.3" stroke-width="2"/>
</svg>
